<?xml version="1.0" encoding="UTF-8" standalone="no"?>
<svg
   xmlns:dc="http://purl.org/dc/elements/1.1/"
   xmlns:cc="http://creativecommons.org/ns#"
   xmlns:rdf="http://www.w3.org/1999/02/22-rdf-syntax-ns#"
   xmlns:svg="http://www.w3.org/2000/svg"
   xmlns="http://www.w3.org/2000/svg"
   xmlns:xlink="http://www.w3.org/1999/xlink"
   xmlns:sodipodi="http://sodipodi.sourceforge.net/DTD/sodipodi-0.dtd"
   xmlns:inkscape="http://www.inkscape.org/namespaces/inkscape"
   width="185mm"
   height="185mm"
   viewBox="0 0 185 185"
   version="1.1"
   id="svg3273"
   inkscape:version="0.92.2 5c3e80d, 2017-08-06"
   sodipodi:docname="functionmachine-colour.svg">
  <defs
     id="defs3267">
    <linearGradient
       inkscape:collect="always"
       id="linearGradient23698">
      <stop
         style="stop-color:#efcccc;stop-opacity:1;"
         offset="0"
         id="stop23694" />
      <stop
         style="stop-color:#efcccc;stop-opacity:0;"
         offset="1"
         id="stop23696" />
    </linearGradient>
    <linearGradient
       inkscape:collect="always"
       id="linearGradient23684">
      <stop
         style="stop-color:#9ac1a7;stop-opacity:1;"
         offset="0"
         id="stop23680" />
      <stop
         style="stop-color:#9ac1a7;stop-opacity:0"
         offset="1"
         id="stop23682" />
    </linearGradient>
    <filter
       inkscape:collect="always"
       style="color-interpolation-filters:sRGB"
       id="filter23664"
       x="-0.040953718"
       width="1.0819074"
       y="-0.2610434"
       height="1.5220869">
      <feGaussianBlur
         inkscape:collect="always"
         stdDeviation="0.32486589"
         id="feGaussianBlur23666" />
    </filter>
    <radialGradient
       inkscape:collect="always"
       xlink:href="#linearGradient23684"
       id="radialGradient23690"
       cx="106.02448"
       cy="145.90575"
       fx="106.02448"
       fy="145.90575"
       r="11.433359"
       gradientTransform="matrix(0.16840558,0.15768771,-0.72874888,0.77828113,194.7759,15.422889)"
       gradientUnits="userSpaceOnUse" />
    <radialGradient
       inkscape:collect="always"
       xlink:href="#linearGradient23698"
       id="radialGradient23700"
       cx="63.192196"
       cy="41.501129"
       fx="63.192196"
       fy="41.501129"
       r="40.798481"
       gradientTransform="matrix(1,0,0,0.72098403,0,8.7051602)"
       gradientUnits="userSpaceOnUse" />
    <radialGradient
       inkscape:collect="always"
       xlink:href="#linearGradient23698"
       id="radialGradient23979"
       gradientUnits="userSpaceOnUse"
       gradientTransform="matrix(1,0,0,0.72098403,0,8.7051602)"
       cx="63.192196"
       cy="41.501129"
       fx="63.192196"
       fy="41.501129"
       r="40.798481" />
    <radialGradient
       inkscape:collect="always"
       xlink:href="#linearGradient23684"
       id="radialGradient23981"
       gradientUnits="userSpaceOnUse"
       gradientTransform="matrix(0.16840558,0.15768771,-0.72874888,0.77828113,194.7759,15.422889)"
       cx="106.02448"
       cy="145.90575"
       fx="106.02448"
       fy="145.90575"
       r="11.433359" />
  </defs>
  <sodipodi:namedview
     id="base"
     pagecolor="#ffffff"
     bordercolor="#666666"
     borderopacity="1.0"
     inkscape:pageopacity="0.0"
     inkscape:pageshadow="2"
     inkscape:zoom="1.0771066"
     inkscape:cx="364.15121"
     inkscape:cy="202.18707"
     inkscape:document-units="mm"
     inkscape:current-layer="layer1"
     inkscape:document-rotation="0"
     showgrid="false"
     fit-margin-top="0"
     fit-margin-left="0"
     fit-margin-right="0"
     fit-margin-bottom="0"
     inkscape:window-width="1436"
     inkscape:window-height="856"
     inkscape:window-x="4"
     inkscape:window-y="0"
     inkscape:window-maximized="1"
     inkscape:snap-global="false" />
  <metadata
     id="metadata3270">
    <rdf:RDF>
      <cc:Work
         rdf:about="">
        <dc:format>image/svg+xml</dc:format>
        <dc:type
           rdf:resource="http://purl.org/dc/dcmitype/StillImage" />
        <dc:title></dc:title>
        <dc:creator>
          <cc:Agent>
            <dc:title>j4p4n</dc:title>
          </cc:Agent>
        </dc:creator>
        <cc:license
           rdf:resource="http://creativecommons.org/publicdomain/zero/1.0/" />
      </cc:Work>
      <cc:License
         rdf:about="http://creativecommons.org/publicdomain/zero/1.0/">
        <cc:permits
           rdf:resource="http://creativecommons.org/ns#Reproduction" />
        <cc:permits
           rdf:resource="http://creativecommons.org/ns#Distribution" />
        <cc:permits
           rdf:resource="http://creativecommons.org/ns#DerivativeWorks" />
      </cc:License>
    </rdf:RDF>
  </metadata>
  <g
     inkscape:label="Calque 1"
     inkscape:groupmode="layer"
     id="layer1"
     transform="translate(-14.861398,-48.499543)">
    <g
       id="g3265"
       transform="translate(264.92091,-13.966348)" />
    <g
       id="g23977"
       transform="matrix(2,0,0,2,-104.24583,-143.17739)">
      <path
         id="path23651"
         d="m 127.93372,181.21962 a 5.5758739,5.2379422 0 0 1 -5.57587,5.23794 5.5758739,5.2379422 0 0 1 -5.57587,-5.23794 5.5758739,5.2379422 0 0 1 5.57587,-5.23794 5.5758739,5.2379422 0 0 1 5.57587,5.23794 z"
         style="opacity:1;fill:#3b2e2e;fill-opacity:1;stroke:none;stroke-width:0.27905196"
         inkscape:connector-curvature="0" />
      <path
         sodipodi:nodetypes="cscssc"
         inkscape:connector-curvature="0"
         id="path23648"
         d="m 90.423294,179.64261 c 3e-6,3.26611 -4.658164,6.43033 -8.729904,6.58967 -4.299175,0.16824 -8.043683,-1.1911 -7.152888,-5.1253 -3e-6,-3.26611 3.30332,-5.91381 7.378176,-5.91381 1.659073,0 3.376979,-0.70499 4.830785,-0.25196 2.116894,0.65966 3.673833,2.76508 3.673831,4.7014 z"
         style="opacity:1;fill:#3b2e2e;fill-opacity:1;stroke:none;stroke-width:0.2928997" />
      <path
         inkscape:connector-curvature="0"
         id="path23646"
         d="m 98.421013,128.3333 -2.027589,0.22529 -1.464371,0.90115 -0.788508,0.90116 -0.337932,2.36552 h 28.724197 v -1.57702 l -0.7885,-1.57701 -0.78851,-1.0138 -1.23908,-0.11264 -2.36553,0.90115 -0.90115,1.35173 -0.11264,1.01379 -7.99772,0.67587 -7.32186,-0.33794 -0.22528,-1.35172 -0.33793,-1.12644 -0.901157,-0.67586 z"
         style="fill:#808080;fill-opacity:1;stroke:none;stroke-width:0.26458332px;stroke-linecap:butt;stroke-linejoin:miter;stroke-opacity:1" />
      <path
         inkscape:connector-curvature="0"
         id="path23644"
         d="m 122.52681,167.08281 -6.30806,0.56322 0.22529,2.70346 1.12644,1.23908 1.46437,0.33793 1.0138,2.25288 1.12644,1.8023 2.02759,-0.11264 -0.56322,-1.01379 -0.78851,-0.78851 -0.33793,-1.12644 -0.22529,-1.35173 1.12644,-0.90115 0.78851,-0.78851 0.11264,-2.02759 z"
         style="fill:#808080;fill-opacity:1;stroke:none;stroke-width:0.26458332px;stroke-linecap:butt;stroke-linejoin:miter;stroke-opacity:1" />
      <path
         inkscape:connector-curvature="0"
         id="path23642"
         d="m 83.214085,168.3219 v 2.25288 1.12644 l 0.337932,0.45057 h 3.266673 l -1.914946,2.70346 h 1.239083 l 0.788507,0.22528 1.239084,-1.35172 1.239083,-1.35173 h 0.788506 l 0.337934,-0.45058 1.013793,-2.92874 z"
         style="fill:#808080;fill-opacity:1;stroke:none;stroke-width:0.26458332px;stroke-linecap:butt;stroke-linejoin:miter;stroke-opacity:1" />
      <path
         inkscape:connector-curvature="0"
         id="path23640"
         d="m 129.62338,135.20458 0.33793,11.15175 1.68966,-0.22529 0.90115,-0.11264 0.45058,-0.78851 0.33793,-1.57701 2.92874,-2.92874 2.59081,-3.04139 3.15403,-2.47817 1.91495,-1.23908 -0.78851,-0.56322 -0.67586,-0.67586 -3.94254,2.92874 -3.15403,2.36552 -1.91494,1.91495 0.11264,-1.8023 -0.11264,-1.23909 -0.56323,-1.12644 -1.23908,-0.56322 z"
         style="fill:#808080;fill-opacity:1;stroke:none;stroke-width:0.26458332px;stroke-linecap:butt;stroke-linejoin:miter;stroke-opacity:1" />
      <path
         inkscape:connector-curvature="0"
         id="path23638"
         d="m 73.977283,148.15864 -1.914946,0.7885 -1.689659,1.46437 -1.802303,3.94254 -0.337931,2.92874 0.337931,1.57702 1.126439,1.35172 1.239084,0.45058 2.816098,0.45058 0.901151,-5.85749 z"
         style="fill:#808080;fill-opacity:1;stroke:none;stroke-width:0.26458332px;stroke-linecap:butt;stroke-linejoin:miter;stroke-opacity:1" />
      <path
         inkscape:connector-curvature="0"
         id="path23632"
         d="m 126.01877,163.02763 -48.662169,1.80231 -0.225288,3.26667 0.225288,1.23908 0.788508,0.78851 4.393112,-0.67586 6.533349,0.22528 4.505756,0.45058 h 5.294265 l 3.604599,-0.11264 4.61841,-0.33794 4.6184,-0.33793 5.06897,-0.56322 5.97013,0.11265 h 1.91495 l 1.01379,-0.67587 0.11265,-1.12644 v -1.23908 l -0.45058,-1.12644 z"
         style="fill:#6c5353;fill-opacity:1;stroke:none;stroke-width:0.26458332px;stroke-linecap:butt;stroke-linejoin:miter;stroke-opacity:1" />
      <path
         inkscape:connector-curvature="0"
         id="path23630"
         d="m 128.72223,151.20002 3.49196,-0.22529 3.15403,0.22529 3.04139,1.23909 0.45057,-1.0138 1.12644,0.33793 0.90115,-0.11264 2.47817,0.67586 0.22529,1.01379 1.91494,-0.56321 3.37932,-1.0138 2.14024,-0.56322 -1.12644,3.94254 -2.36553,5.97013 -2.92874,5.63219 -1.57701,2.36553 -0.78851,0.7885 -0.45057,0.67587 -1.12644,-0.33794 -1.12644,-1.68966 -0.78851,-2.36552 -0.33793,-1.8023 -1.80231,-0.11264 -1.35172,-0.56322 -0.45058,-0.45058 -0.11264,-1.68966 -6.75864,-1.12644 1.35173,-4.84369 z"
         style="fill:#6c5353;stroke:none;stroke-width:0.26458332px;stroke-linecap:butt;stroke-linejoin:miter;stroke-opacity:1" />
      <path
         sodipodi:nodetypes="ccccccccccccccccccccccccccc"
         inkscape:connector-curvature="0"
         id="path23081"
         d="m 128.04637,131.1494 -20.27591,0.78851 -19.382386,0.51443 -11.594693,0.94994 -1.914946,1.12644 -1.013796,1.46437 -0.563219,13.0667 0.112644,16.10808 1.126439,1.46437 2.59081,-0.11264 0.788508,-0.78851 7.096567,0.22528 12.841407,-0.22528 h 11.489675 l 10.92646,-0.56322 3.8299,-0.56322 0.67586,0.11264 0.78851,0.56322 2.36552,-1.35173 1.35173,-1.8023 0.67586,-1.46437 0.90115,-12.72876 -0.22528,-9.91267 -0.45058,-5.40691 -0.33793,-0.7885 -0.56322,-0.45058 z"
         style="fill:#999999;stroke:none;stroke-width:0.26458332px;stroke-linecap:butt;stroke-linejoin:miter;stroke-opacity:1" />
      <path
         inkscape:connector-curvature="0"
         id="path23626"
         d="m 112.61415,134.9793 -10.47589,0.33793 h -5.744836 l -2.478167,1.35172 -2.59081,1.68967 -0.90115,2.02758 -0.450578,5.29427 0.450578,4.73104 v 3.15403 0.90115 l 0.788506,0.90116 1.12644,0.56322 7.20921,0.67586 7.547147,-0.22529 4.05518,-0.22529 4.28047,-0.11264 1.46437,0.22529 2.36552,-0.90115 1.01379,-0.56322 0.22529,-1.57702 0.11265,-6.64599 0.22528,-6.87128 -0.67586,-2.02759 -1.12644,-0.90115 -1.23908,-1.0138 -2.14024,-0.45057 -2.02759,-0.22529 z"
         style="fill:#b3b3b3;stroke:none;stroke-width:0.26458332px;stroke-linecap:butt;stroke-linejoin:miter;stroke-opacity:1" />
      <path
         inkscape:connector-curvature="0"
         id="path23628"
         d="m 114.97967,137.68275 -10.92646,0.11264 -5.519553,0.33794 -2.252877,0.11264 -1.013796,0.11265 -0.563218,1.46437 -0.112644,9.57473 v 3.6046 0.45058 l 0.675862,0.33793 h 10.250596 l 5.97013,0.33793 4.6184,-0.22528 0.78851,-0.22529 -0.22529,-0.67587 0.45058,-6.64599 0.22528,-3.71725 0.11265,-2.14023 -0.33793,-1.35173 -1.46438,-0.90115 z"
         style="fill:#84a18e;fill-opacity:1;stroke:none;stroke-width:0.26458332px;stroke-linecap:butt;stroke-linejoin:miter;stroke-opacity:1" />
      <path
         inkscape:connector-curvature="0"
         id="path23634"
         d="m 69.246239,114.59075 5.74484,0.11264 9.912665,-0.22529 5.74484,-0.56322 h 5.632196 l -0.788508,2.59081 -2.816098,7.54715 -0.788506,1.68966 -1.914949,0.7885 -0.450574,1.68966 -1.239084,0.78851 0.337931,3.04138 0.675865,2.14024 h 1.351727 l 1.013796,0.33793 0.788506,0.78851 0.112644,0.90115 -0.225287,1.0138 -3.266673,2.81609 -2.027592,0.78851 -1.914946,0.33793 -2.928742,0.11265 -2.703454,-0.67587 -1.577015,-0.7885 -0.56322,-0.78851 -0.450576,-1.68966 v -0.78851 l 0.450576,-0.78851 1.464371,-0.11264 -0.112644,-4.16782 -0.337931,-2.14024 -2.140235,0.22529 h -0.450576 -0.563219 l -0.112644,-0.45058 v -2.25288 l -1.239084,-0.11264 -0.563219,-0.33793 -2.478166,-7.32186 -1.351727,-3.6046 z"
         style="fill:#6c5353;fill-opacity:1;stroke:none;stroke-width:0.26458332px;stroke-linecap:butt;stroke-linejoin:miter;stroke-opacity:1" />
      <path
         inkscape:connector-curvature="0"
         id="path23636"
         d="m 83.552017,147.25748 -5.970128,0.11265 -0.901152,0.22529 -0.450575,0.90115 0.337932,8.44829 v 4.95633 l -0.225288,0.78851 0.788507,0.33793 h 7.885075 1.239083 l -0.112644,-7.09656 0.112644,-6.30806 -0.337932,-1.12644 -0.563219,-0.67587 -1.013796,-0.56322 z"
         style="fill:#b3b3b3;fill-opacity:1;stroke:none;stroke-width:0.26458332px;stroke-linecap:butt;stroke-linejoin:miter;stroke-opacity:1" />
      <path
         inkscape:connector-curvature="0"
         id="path23676"
         d="m -135.79716,137.65382 -3.19567,1.45889 v 0.55577 l 0.27789,0.13894 0.13894,0.9726 0.34735,0.83365 0.83366,0.20842 1.04206,-0.62524 0.55577,-0.41683 -0.20841,-0.34736 0.55577,-0.20841 0.0695,-0.69471 -0.13894,-0.90312 z m 3.6125,-7.4334 -1.11154,0.69471 -1.38942,-0.20841 -1.11154,0.0695 -0.97259,0.41682 -0.13895,0.76419 0.55577,0.83365 0.20842,0.41683 -0.55577,0.69471 v 0.62524 l 0.83365,0.90312 0.9726,-0.20841 0.69471,0.13894 -0.20842,0.69471 -0.34735,0.62524 0.41682,0.69471 1.04207,0.13894 1.25048,-0.20841 0.55577,-0.55577 0.13894,-0.41683 -0.27788,-0.13894 0.4863,-0.55577 0.90312,0.41683 0.83365,-0.4863 0.69471,-1.18101 0.13895,-0.55577 v -0.34735 l -0.27789,-0.13894 -0.55577,-0.13894 0.27789,-0.83366 v -0.69471 l -0.20842,-0.41683 -0.55576,-0.13894 -1.25048,0.0695 -0.34736,0.27789 v -0.69471 l -0.34736,-0.34736 z"
         style="opacity:0.33700005;fill:#b3b3b3;stroke:none;stroke-width:0.26458332px;stroke-linecap:butt;stroke-linejoin:miter;stroke-opacity:1"
         transform="translate(264.92091,-13.966348)" />
      <path
         transform="matrix(0.26458333,0,0,0.26458333,60.34737,96.428792)"
         inkscape:connector-curvature="0"
         id="path23674"
         d="M 72.495001,59.302034 C 67.297107,58.591349 62.691225,57.242874 58.151649,55.102694 49.169458,50.868046 43.080745,44.497402 40.835808,36.985066 39.867945,33.746262 39.802961,29.099947 40.681571,25.957214 43.960393,14.229082 56.555922,5.2435232 72.705376,3.1116658 c 3.8014,-0.5018154 10.481653,-0.5018154 14.283054,0 17.09255,2.2563542 30.20059,12.2569502 32.36979,24.6960932 0.21945,1.258424 0.39901,2.788791 0.39901,3.400813 0,0.612022 -0.17956,2.142389 -0.39901,3.400814 -2.1692,12.439142 -15.27724,22.439739 -32.36979,24.696093 -3.599008,0.475098 -11.00627,0.473336 -14.493429,-0.0034 z"
         style="opacity:1;fill:#ffaaaa;fill-opacity:1;stroke:#ffaaaa;stroke-width:1.88976383;stroke-linecap:round;stroke-miterlimit:4;stroke-dasharray:none;stroke-opacity:1" />
      <path
         style="opacity:0.61000001;fill:url(#radialGradient23979);fill-opacity:1;stroke:#ffaaaa;stroke-width:1.88976383;stroke-linecap:round;stroke-miterlimit:4;stroke-dasharray:none;stroke-opacity:1"
         d="M 72.495001,59.302034 C 67.297107,58.591349 62.691225,57.242874 58.151649,55.102694 49.169458,50.868046 43.080745,44.497402 40.835808,36.985066 39.867945,33.746262 39.802961,29.099947 40.681571,25.957214 43.960393,14.229082 56.555922,5.2435232 72.705376,3.1116658 c 3.8014,-0.5018154 10.481653,-0.5018154 14.283054,0 17.09255,2.2563542 30.20059,12.2569502 32.36979,24.6960932 0.21945,1.258424 0.39901,2.788791 0.39901,3.400813 0,0.612022 -0.17956,2.142389 -0.39901,3.400814 -2.1692,12.439142 -15.27724,22.439739 -32.36979,24.696093 -3.599008,0.475098 -11.00627,0.473336 -14.493429,-0.0034 z"
         id="path23692"
         inkscape:connector-curvature="0"
         transform="matrix(0.26458333,0,0,0.26458333,60.34737,96.428792)" />
      <path
         sodipodi:nodetypes="cscsc"
         inkscape:connector-curvature="0"
         id="path23671"
         d="m -198.80744,163.98337 c 0,1.26614 -1.20832,1.77017 -2.46623,2.29254 -1.97816,0.82148 -2.95874,-0.36971 -2.46622,-2.29254 0,-1.26614 1.10416,-2.29255 2.46622,-2.29255 1.36206,0 2.46623,1.02641 2.46623,2.29255 z"
         style="opacity:1;fill:#ccca45;fill-opacity:1;stroke:none;stroke-width:0.39699998;stroke-linecap:round;stroke-miterlimit:4;stroke-dasharray:none;stroke-opacity:1"
         transform="translate(264.92091,-13.966348)" />
      <path
         sodipodi:nodetypes="sssss"
         inkscape:connector-curvature="0"
         id="path23668"
         d="m -115.47221,145.05943 c 0,1.52418 -1.56164,2.53433 -3.49108,3.02466 -2.12583,0.54024 -3.88284,-0.84164 -3.71813,-3.02466 0.11468,-1.51986 1.5012,-3.0977 3.49197,-3.0977 1.99076,0 3.71724,1.57352 3.71724,3.0977 z"
         style="opacity:1;fill:#457dcc;fill-opacity:1;stroke:none;stroke-width:0.39757088;stroke-linecap:round;stroke-miterlimit:4;stroke-dasharray:none;stroke-opacity:1"
         transform="translate(264.92091,-13.966348)" />
      <path
         style="fill:none;stroke:#c65246;stroke-width:0.39700001;stroke-linecap:round;stroke-linejoin:round;stroke-miterlimit:4;stroke-dasharray:none;stroke-opacity:1;filter:url(#filter23664)"
         d="m -165.63581,137.47929 c 0.3373,0.45408 4.97274,-0.0601 4.72978,-0.5132 -0.43231,2.53122 1.30254,1.62073 3.31941,0.26232 0.27988,2.67617 1.53177,1.25191 2.89115,-0.62579 -0.57304,3.24201 1.4675,1.10962 3.06272,-0.10704 1.4029,2.339 3.28021,0.20291 5.03497,-0.77722"
         id="path23654"
         sodipodi:nodetypes="cccccc"
         transform="translate(264.92091,-13.966348)"
         inkscape:connector-curvature="0" />
      <path
         sodipodi:nodetypes="cccccc"
         id="path983-3-0"
         d="m -165.63581,137.47929 c 0.3373,0.45408 4.97274,-0.0601 4.72978,-0.5132 -0.43231,2.53122 1.30254,1.62073 3.31941,0.26232 0.27988,2.67617 1.53177,1.25191 2.89115,-0.62579 -0.57304,3.24201 1.4675,1.10962 3.06272,-0.10704 1.4029,2.339 3.28021,0.20291 5.03497,-0.77722"
         style="fill:none;stroke:#c65246;stroke-width:0.39700001;stroke-linecap:round;stroke-linejoin:round;stroke-miterlimit:4;stroke-dasharray:none;stroke-opacity:1"
         transform="translate(264.92091,-13.966348)"
         inkscape:connector-curvature="0" />
      <path
         sodipodi:nodetypes="ccccc"
         id="path2375-5"
         d="m -121.37876,167.70068 c 2.81306,-1.22707 5.2056,-1.85109 7.44644,-2.25758 -1.62398,6.30128 -4.27035,11.74595 -7.8833,17.34087 -0.81349,1.18499 -1.47958,1.92206 -2.33202,1.06962 -1.04757,-1.04757 -1.75489,-3.20385 -2.43528,-5.35902"
         style="fill:none;stroke:#000000;stroke-width:0.66145802;stroke-linecap:round;stroke-linejoin:round;stroke-miterlimit:4;stroke-dasharray:none;stroke-opacity:1"
         transform="translate(264.92091,-13.966348)"
         inkscape:connector-curvature="0" />
      <path
         sodipodi:nodetypes="cccccccc"
         id="path2377-7"
         d="m -129.02578,175.82469 4.40527,-10.42937 3.21129,1.12346 c 0.32428,0.18722 0.13273,0.82506 0.0305,1.1819 -1.04421,3.82045 -3.2499,7.26666 -5.20415,10.79389 -1.05929,-0.13098 -2.12062,-0.2249 -3.15895,-0.73728 -0.44125,-0.75369 -0.48831,-1.46732 -0.46551,-2.17384 l -4.75591,-1.104"
         style="fill:none;stroke:#000000;stroke-width:0.66145802;stroke-linecap:round;stroke-linejoin:round;stroke-miterlimit:4;stroke-dasharray:none;stroke-opacity:1"
         transform="translate(264.92091,-13.966348)"
         inkscape:connector-curvature="0" />
      <path
         sodipodi:nodetypes="cc"
         id="path2379-4"
         d="m -133.9019,165.17883 c 2.10078,0.0266 3.98289,-0.42392 6.76202,1.08254"
         style="fill:none;stroke:#000000;stroke-width:0.66145802;stroke-linecap:round;stroke-linejoin:miter;stroke-miterlimit:4;stroke-dasharray:none;stroke-opacity:1"
         transform="translate(264.92091,-13.966348)"
         inkscape:connector-curvature="0" />
      <path
         sodipodi:nodetypes="ccc"
         id="path2381-1"
         d="m -124.71651,165.72422 c 0,0 -0.638,-0.36726 -1.31947,-0.1456 -1.66543,3.29894 -3.18144,6.61745 -4.17139,10.00483"
         style="fill:none;stroke:#000000;stroke-width:0.58208299;stroke-linecap:round;stroke-linejoin:round;stroke-miterlimit:4;stroke-dasharray:none;stroke-opacity:1"
         transform="translate(264.92091,-13.966348)"
         inkscape:connector-curvature="0" />
      <path
         sodipodi:nodetypes="cc"
         id="path2383-8"
         d="m -127.97352,165.95652 -3.77615,9.27135"
         style="fill:none;stroke:#000000;stroke-width:0.529167;stroke-linecap:round;stroke-linejoin:miter;stroke-miterlimit:4;stroke-dasharray:none;stroke-opacity:1"
         transform="translate(264.92091,-13.966348)"
         inkscape:connector-curvature="0" />
      <path
         id="path2385-5"
         d="m -129.34587,165.41074 -3.96609,9.50939"
         style="fill:none;stroke:#000000;stroke-width:0.529167;stroke-linecap:round;stroke-linejoin:miter;stroke-miterlimit:4;stroke-dasharray:none;stroke-opacity:1"
         transform="translate(264.92091,-13.966348)"
         inkscape:connector-curvature="0" />
      <path
         sodipodi:nodetypes="cc"
         id="path2387-9"
         d="m -131.21682,165.17901 -3.4475,8.03867"
         style="fill:none;stroke:#000000;stroke-width:0.529167;stroke-linecap:round;stroke-linejoin:miter;stroke-miterlimit:4;stroke-dasharray:none;stroke-opacity:1"
         transform="translate(264.92091,-13.966348)"
         inkscape:connector-curvature="0" />
      <ellipse
         transform="rotate(-71.909243,122.83291,-189.60334)"
         ry="0.54068053"
         rx="0.36597627"
         cy="-66.080681"
         cx="-207.04773"
         id="path2389-75"
         style="fill:#000000;fill-opacity:1;stroke:none;stroke-width:0.529167;stroke-linecap:round;stroke-linejoin:round;stroke-miterlimit:4;stroke-dasharray:none;stroke-dashoffset:0;stroke-opacity:1" />
      <ellipse
         transform="rotate(-71.909243,122.83291,-189.60334)"
         ry="0.54068053"
         rx="0.36597627"
         cy="-65.938194"
         cx="-204.17804"
         id="path2389-2-3"
         style="fill:#000000;fill-opacity:1;stroke:none;stroke-width:0.529167;stroke-linecap:round;stroke-linejoin:round;stroke-miterlimit:4;stroke-dasharray:none;stroke-dashoffset:0;stroke-opacity:1" />
      <ellipse
         transform="rotate(-71.909243,122.83291,-189.60334)"
         ry="0.54068053"
         rx="0.36597627"
         cy="-65.545845"
         cx="-201.04277"
         id="path2389-1-8"
         style="fill:#000000;fill-opacity:1;stroke:none;stroke-width:0.529167;stroke-linecap:round;stroke-linejoin:round;stroke-miterlimit:4;stroke-dasharray:none;stroke-dashoffset:0;stroke-opacity:1" />
      <ellipse
         transform="rotate(-71.909243,122.83291,-189.60334)"
         ry="0.54068053"
         rx="0.36597627"
         cy="-65.356926"
         cx="-198.19762"
         id="path2389-7-8"
         style="fill:#000000;fill-opacity:1;stroke:none;stroke-width:0.529167;stroke-linecap:round;stroke-linejoin:round;stroke-miterlimit:4;stroke-dasharray:none;stroke-dashoffset:0;stroke-opacity:1" />
      <path
         sodipodi:nodetypes="cc"
         id="path2418-3"
         d="m -122.73902,175.24994 c -0.9507,1.3133 -1.77243,2.79151 -2.42346,4.48801"
         style="fill:none;stroke:#000000;stroke-width:0.58208299;stroke-linecap:round;stroke-linejoin:miter;stroke-miterlimit:4;stroke-dasharray:none;stroke-opacity:1"
         transform="translate(264.92091,-13.966348)"
         inkscape:connector-curvature="0" />
      <path
         sodipodi:nodetypes="cc"
         id="path2420-1"
         d="m -121.46904,176.70282 c -1.22537,0.97722 -2.03793,2.25455 -2.41455,3.8488"
         style="fill:none;stroke:#000000;stroke-width:0.58208299;stroke-linecap:round;stroke-linejoin:miter;stroke-miterlimit:4;stroke-dasharray:none;stroke-opacity:1"
         transform="translate(264.92091,-13.966348)"
         inkscape:connector-curvature="0" />
      <path
         sodipodi:nodetypes="cc"
         id="path2422-8"
         d="m -120.58099,178.47577 c -1.0045,0.75531 -1.41143,1.61051 -1.67631,2.48945"
         style="fill:none;stroke:#000000;stroke-width:0.58208299;stroke-linecap:round;stroke-linejoin:miter;stroke-miterlimit:4;stroke-dasharray:none;stroke-opacity:1"
         transform="translate(264.92091,-13.966348)"
         inkscape:connector-curvature="0" />
      <path
         sodipodi:nodetypes="cccccc"
         id="path847-5-6"
         d="m -190.78661,140.91086 c 0.22172,0.0297 15.74893,-0.4938 15.74893,-0.4938 1.02144,-0.1367 1.80936,-0.61698 2.12571,-1.33477 1.53424,-3.59694 3.37762,-7.09597 4.37679,-11.10389 -8.27504,-0.26227 -17.49404,0.99562 -27.00623,0.70819 1.48774,4.05524 2.74502,7.93644 3.97292,11.79545"
         style="fill:none;stroke:#000000;stroke-width:0.79374999;stroke-linecap:round;stroke-linejoin:round;stroke-miterlimit:4;stroke-dasharray:none;stroke-opacity:1"
         transform="translate(264.92091,-13.966348)"
         inkscape:connector-curvature="0" />
      <path
         sodipodi:nodetypes="cc"
         id="path971-4-4"
         d="m -171.0846,146.02086 c 0,-3.42171 7.24663,-5.97951 7.24663,0"
         style="fill:none;stroke:#000000;stroke-width:0.66145802;stroke-linecap:round;stroke-linejoin:miter;stroke-miterlimit:4;stroke-dasharray:none;stroke-opacity:1"
         transform="translate(264.92091,-13.966348)"
         inkscape:connector-curvature="0" />
      <path
         sodipodi:nodetypes="cc"
         id="path973-7-3"
         d="m -166.97949,142.51908 c 0.47191,-1.62277 0.97286,-3.23185 0.86589,-5.12769"
         style="fill:none;stroke:#000000;stroke-width:0.529167;stroke-linecap:round;stroke-linejoin:miter;stroke-miterlimit:4;stroke-dasharray:none;stroke-opacity:1"
         transform="translate(264.92091,-13.966348)"
         inkscape:connector-curvature="0" />
      <ellipse
         transform="rotate(15.24646,184.63553,982.70077)"
         ry="1.3330401"
         rx="1.000964"
         cy="175.28969"
         cx="-124.12249"
         id="path975-6-3"
         style="fill:#000000;stroke:none;stroke-width:0.66145802;stroke-linecap:round;stroke-linejoin:round;stroke-miterlimit:4;stroke-dasharray:none" />
      <path
         sodipodi:nodetypes="cc"
         id="path977-5-3"
         d="m -148.68567,145.65552 c 0,-2.67631 6.16331,-5.48915 6.16331,-0.16712"
         style="fill:none;stroke:#000000;stroke-width:0.66145802;stroke-linecap:round;stroke-linejoin:miter;stroke-miterlimit:4;stroke-dasharray:none;stroke-opacity:1"
         transform="translate(264.92091,-13.966348)"
         inkscape:connector-curvature="0" />
      <path
         id="path979-6-8"
         d="m -145.5001,136.02029 0.3854,6.53339"
         style="fill:none;stroke:#000000;stroke-width:0.529167;stroke-linecap:round;stroke-linejoin:miter;stroke-miterlimit:4;stroke-dasharray:none;stroke-opacity:1"
         transform="translate(264.92091,-13.966348)"
         inkscape:connector-curvature="0" />
      <ellipse
         transform="rotate(19.89243,172.28259,748.38316)"
         ry="1.0862732"
         rx="1.6987312"
         cy="176.9855"
         cx="-91.265884"
         id="path981-9-6"
         style="fill:#000000;stroke:none;stroke-width:0.529167;stroke-linecap:round;stroke-linejoin:round;stroke-miterlimit:4;stroke-dasharray:none" />
      <path
         id="path849-74-4"
         d="m -194.74194,130.73362 h 3.50842"
         style="fill:none;stroke:#000000;stroke-width:0.529167;stroke-linecap:round;stroke-linejoin:miter;stroke-miterlimit:4;stroke-dasharray:none;stroke-opacity:1"
         transform="translate(264.92091,-13.966348)"
         inkscape:connector-curvature="0" />
      <path
         id="path849-3-5-8"
         d="m -194.22671,132.36784 h 3.28099"
         style="fill:none;stroke:#000000;stroke-width:0.529167;stroke-linecap:round;stroke-linejoin:miter;stroke-miterlimit:4;stroke-dasharray:none;stroke-opacity:1"
         transform="translate(264.92091,-13.966348)"
         inkscape:connector-curvature="0" />
      <path
         id="path849-6-2-8"
         d="m -192.97282,135.3236 h 2.30812"
         style="fill:none;stroke:#000000;stroke-width:0.529167;stroke-linecap:round;stroke-linejoin:miter;stroke-miterlimit:4;stroke-dasharray:none;stroke-opacity:1"
         transform="translate(264.92091,-13.966348)"
         inkscape:connector-curvature="0" />
      <path
         id="path849-7-5-8"
         d="m -192.05006,137.86631 h 1.31208"
         style="fill:none;stroke:#000000;stroke-width:0.529167;stroke-linecap:round;stroke-linejoin:miter;stroke-miterlimit:4;stroke-dasharray:none;stroke-opacity:1"
         transform="translate(264.92091,-13.966348)"
         inkscape:connector-curvature="0" />
      <path
         sodipodi:nodetypes="ccccc"
         id="path880-4-9"
         d="m -186.25705,143.56184 c -0.16365,1.88648 -0.0192,4.11405 0.27992,6.51287 0.18699,0.90478 0.9778,1.80568 1.97418,2.20846 3.64938,1.12583 6.55907,0.35374 9.02409,-2.15763 -1.20326,-2.22601 -1.33025,-4.8372 -1.70554,-7.19253"
         style="fill:none;stroke:#000000;stroke-width:0.79374999;stroke-linecap:round;stroke-linejoin:round;stroke-miterlimit:4;stroke-dasharray:none;stroke-opacity:1"
         transform="translate(264.92091,-13.966348)"
         inkscape:connector-curvature="0" />
      <path
         sodipodi:nodetypes="cc"
         id="path882-7-7"
         d="m -186.2518,144.64693 c 1.565,0.94662 5.65071,0.48697 9.73181,0.0299"
         style="fill:none;stroke:#000000;stroke-width:0.529167;stroke-linecap:round;stroke-linejoin:miter;stroke-miterlimit:4;stroke-dasharray:none;stroke-opacity:1"
         transform="translate(264.92091,-13.966348)"
         inkscape:connector-curvature="0" />
      <path
         sodipodi:nodetypes="cc"
         id="path882-5-4-7"
         d="m -186.38663,146.4962 c 1.87971,1.14453 7.05198,1.00798 10.01733,-0.20198"
         style="fill:none;stroke:#000000;stroke-width:0.529167;stroke-linecap:round;stroke-linejoin:miter;stroke-miterlimit:4;stroke-dasharray:none;stroke-opacity:1"
         transform="translate(264.92091,-13.966348)"
         inkscape:connector-curvature="0" />
      <path
         sodipodi:nodetypes="cc"
         id="path882-5-3-4-6"
         d="m -186.26852,147.92781 c 1.76873,1.3918 6.75289,1.6969 10.20968,-0.19956"
         style="fill:none;stroke:#000000;stroke-width:0.529167;stroke-linecap:round;stroke-linejoin:miter;stroke-miterlimit:4;stroke-dasharray:none;stroke-opacity:1"
         transform="translate(264.92091,-13.966348)"
         inkscape:connector-curvature="0" />
      <path
         sodipodi:nodetypes="cc"
         id="path882-5-5-3-4"
         d="m -185.97713,150.07471 c 2.26623,1.73476 8.0268,1.72892 10.54217,-0.67994"
         style="fill:none;stroke:#000000;stroke-width:0.529167;stroke-linecap:round;stroke-linejoin:miter;stroke-miterlimit:4;stroke-dasharray:none;stroke-opacity:1"
         transform="translate(264.92091,-13.966348)"
         inkscape:connector-curvature="0" />
      <path
         sodipodi:nodetypes="ccccc"
         id="path878-0-3"
         d="m -189.78899,140.92548 c 0.0387,0.10982 0,2.11346 0,2.11346 -0.007,0.3089 0.20619,0.62679 0.58351,0.5835 l 12.5441,-0.77348 c 1.43872,-0.17206 1.6237,-1.42016 1.6237,-2.4319"
         style="fill:none;stroke:#000000;stroke-width:0.66145802;stroke-linecap:round;stroke-linejoin:round;stroke-miterlimit:4;stroke-dasharray:none;stroke-opacity:1"
         transform="translate(264.92091,-13.966348)"
         inkscape:connector-curvature="0" />
      <path
         sodipodi:nodetypes="ccccc"
         id="path922-7-0"
         d="m -186.06619,149.59442 c -0.62289,0.22576 -1.79739,0.25199 -1.79739,0.88536 0,2.50534 0.51126,3.68336 3.02713,4.35748 6.84745,1.19306 9.38028,-0.90855 11.60388,-3.13215 1.97205,-1.97206 0.37063,-3.52298 -1.39031,-3.62614"
         style="fill:none;stroke:#000000;stroke-width:0.66145802;stroke-linecap:round;stroke-linejoin:round;stroke-miterlimit:4;stroke-dasharray:none;stroke-opacity:1"
         transform="translate(264.92091,-13.966348)"
         inkscape:connector-curvature="0" />
      <circle
         r="0.47843438"
         cy="142.27733"
         cx="-187.61632"
         id="path924-8-3"
         style="fill:#000000;stroke:none;stroke-width:0.66145802;stroke-linecap:round;stroke-linejoin:round;stroke-miterlimit:4;stroke-dasharray:none"
         transform="translate(264.92091,-13.966348)" />
      <circle
         r="0.47843438"
         cy="142.2103"
         cx="-186.29388"
         id="path924-6-6-0"
         style="fill:#000000;stroke:none;stroke-width:0.66145802;stroke-linecap:round;stroke-linejoin:round;stroke-miterlimit:4;stroke-dasharray:none"
         transform="translate(264.92091,-13.966348)" />
      <circle
         r="0.47843438"
         cy="141.84727"
         cx="-179.53751"
         id="path924-2-8-9"
         style="fill:#000000;stroke:none;stroke-width:0.66145802;stroke-linecap:round;stroke-linejoin:round;stroke-miterlimit:4;stroke-dasharray:none"
         transform="translate(264.92091,-13.966348)" />
      <circle
         r="0.47843438"
         cy="141.76025"
         cx="-177.0258"
         id="path924-9-8-2"
         style="fill:#000000;stroke:none;stroke-width:0.66145802;stroke-linecap:round;stroke-linejoin:round;stroke-miterlimit:4;stroke-dasharray:none"
         transform="translate(264.92091,-13.966348)" />
      <ellipse
         ry="7.9273944"
         rx="10.908519"
         cy="118.65327"
         cx="-183.4492"
         id="path985-4-5"
         style="fill:none;stroke:#000000;stroke-width:0.66145802;stroke-linecap:round;stroke-linejoin:round;stroke-miterlimit:4;stroke-dasharray:none;stroke-opacity:1"
         transform="translate(264.92091,-13.966348)" />
      <path
         sodipodi:nodetypes="cc"
         id="path987-3-4"
         d="m -172.64721,123.77895 c 0.58813,-0.7136 0.94016,-1.63899 1.09564,-2.7407"
         style="fill:none;stroke:#000000;stroke-width:0.529167;stroke-linecap:round;stroke-linejoin:miter;stroke-miterlimit:4;stroke-dasharray:none;stroke-opacity:1"
         transform="translate(264.92091,-13.966348)"
         inkscape:connector-curvature="0" />
      <path
         sodipodi:nodetypes="cc"
         id="path989-1-0"
         d="m -171.03427,124.54966 c 0.54631,-0.64951 0.7724,-1.45029 0.88457,-2.30488"
         style="fill:none;stroke:#000000;stroke-width:0.39687499;stroke-linecap:round;stroke-linejoin:miter;stroke-miterlimit:4;stroke-dasharray:none;stroke-opacity:1"
         transform="translate(264.92091,-13.966348)"
         inkscape:connector-curvature="0" />
      <path
         sodipodi:nodetypes="cc"
         id="path991-4-5"
         d="m -195.75849,118.62673 c -0.33614,1.14363 -0.35517,2.37844 0.54938,3.87881"
         style="fill:none;stroke:#000000;stroke-width:0.529167;stroke-linecap:round;stroke-linejoin:miter;stroke-miterlimit:4;stroke-dasharray:none;stroke-opacity:1"
         transform="translate(264.92091,-13.966348)"
         inkscape:connector-curvature="0" />
      <path
         sodipodi:nodetypes="cc"
         id="path993-9-9"
         d="m -196.96658,120.61621 c -0.11074,0.81791 0.0311,1.61826 0.74116,2.37908"
         style="fill:none;stroke:#000000;stroke-width:0.39687499;stroke-linecap:round;stroke-linejoin:miter;stroke-miterlimit:4;stroke-dasharray:none;stroke-opacity:1"
         transform="translate(264.92091,-13.966348)"
         inkscape:connector-curvature="0" />
      <path
         sodipodi:nodetypes="ccccc"
         id="path1112-2-4"
         d="m -186.3662,147.51483 c -2.35762,0 -5.04414,0.24417 -5.04414,5.04415 v 25.95222 c 0,1.16574 0.67409,1.87003 1.85849,1.8585 h 1.87377"
         style="fill:none;stroke:#000000;stroke-width:0.66145802;stroke-linecap:round;stroke-linejoin:round;stroke-miterlimit:4;stroke-dasharray:none;stroke-opacity:1"
         transform="translate(264.92091,-13.966348)"
         inkscape:connector-curvature="0" />
      <path
         sodipodi:nodetypes="cc"
         id="path1114-0-6"
         d="m -191.44091,162.5244 c -3.92264,0.12059 -9.3331,13.63342 0.051,12.20966"
         style="fill:none;stroke:#000000;stroke-width:0.66145802;stroke-linecap:butt;stroke-linejoin:miter;stroke-miterlimit:4;stroke-dasharray:none;stroke-opacity:1"
         transform="translate(264.92091,-13.966348)"
         inkscape:connector-curvature="0" />
      <path
         sodipodi:nodetypes="cc"
         id="path1116-6-9"
         d="m -194.51126,168.28007 c -0.0829,1.50257 -0.14568,3.00713 0.0362,4.53595"
         style="fill:none;stroke:#000000;stroke-width:0.529167;stroke-linecap:round;stroke-linejoin:miter;stroke-miterlimit:4;stroke-dasharray:none;stroke-opacity:1"
         transform="translate(264.92091,-13.966348)"
         inkscape:connector-curvature="0" />
      <path
         sodipodi:nodetypes="cc"
         id="path1118-8-2"
         d="m -192.72773,169.18524 c -0.4822,0.85777 -0.65591,2.32798 -0.29685,4.85584"
         style="fill:none;stroke:#000000;stroke-width:0.529167;stroke-linecap:round;stroke-linejoin:miter;stroke-miterlimit:4;stroke-dasharray:none;stroke-opacity:1"
         transform="translate(264.92091,-13.966348)"
         inkscape:connector-curvature="0" />
      <path
         id="path1120-9-2"
         d="m -196.15817,168.01942 -3.25801,-2.60979 0.42545,-0.7576 3.64066,1.54019 z"
         style="fill:#000000;fill-opacity:1;stroke:#000000;stroke-width:0.26458299;stroke-linecap:round;stroke-linejoin:round;stroke-miterlimit:4;stroke-dasharray:none;stroke-opacity:1"
         transform="translate(264.92091,-13.966348)"
         inkscape:connector-curvature="0" />
      <path
         d="m -203.13356,162.97299 c -0.0188,-0.0599 -0.0173,-0.12156 -0.008,-0.18293 0.026,-0.12462 0.0898,-0.23567 0.15735,-0.34191 0.0872,-0.13477 0.19821,-0.24924 0.31958,-0.35308 0.0532,-0.0435 0.10894,-0.0837 0.16695,-0.12042 0.0188,-0.0119 0.0395,-0.021 0.057,-0.0347 0.015,-0.0118 -0.0676,0.035 -0.0495,0.0288 0.0207,-0.007 0.0385,-0.0211 0.0577,-0.0316 0.13132,-0.0698 0.26875,-0.12707 0.40881,-0.17667 0.15397,-0.0534 0.31328,-0.0874 0.47356,-0.11505 0.17002,-0.0284 0.34222,-0.0369 0.5143,-0.0384 0.17954,-8e-4 0.35733,0.024 0.53214,0.0631 0.16735,0.039 0.32319,0.10994 0.47274,0.19284 0.16852,0.0979 0.31626,0.22547 0.46136,0.35439 0.14944,0.13107 0.29512,0.26593 0.43139,0.4107 0.10809,0.12306 0.20482,0.25734 0.28019,0.40308 0.0154,0.0298 0.029,0.0604 0.0435,0.0906 0.0859,0.1972 0.13351,0.40759 0.17112,0.61849 0.0381,0.21023 0.0369,0.42342 0.0215,0.63559 -0.0156,0.21342 -0.0663,0.42056 -0.1319,0.62343 -0.065,0.20113 -0.17153,0.38267 -0.29177,0.555 -0.1466,0.20239 -0.32984,0.37233 -0.52181,0.5305 -0.14915,0.1186 -0.30833,0.22344 -0.47122,0.32196 -8e-4,5.3e-4 0.002,-0.002 0.002,-0.002 -0.0436,0.0222 -0.087,0.045 -0.13043,0.0674 -0.24702,0.12326 -0.50684,0.21687 -0.76961,0.29993 -0.22497,0.0706 -0.45614,0.11579 -0.68966,0.14563 -0.22605,0.0261 -0.45368,0.0275 -0.68058,0.015 -0.1496,-0.0125 -0.29919,-0.0328 -0.44475,-0.0704 -0.0967,-0.0249 -0.11543,-0.0341 -0.20857,-0.0677 -0.1667,-0.0674 -0.32433,-0.15828 -0.46332,-0.27275 -0.0274,-0.0226 -0.0533,-0.0469 -0.08,-0.0703 -0.15615,-0.1462 -0.27776,-0.32175 -0.3858,-0.50501 -0.063,-0.11412 -0.1181,-0.23279 -0.15908,-0.35664 -0.0256,-0.0773 -0.0307,-0.10341 -0.0504,-0.18187 -0.0453,-0.19294 -0.0577,-0.39108 -0.0653,-0.58846 -0.007,-0.19982 0.0119,-0.39303 0.0497,-0.58889 0.0455,-0.21544 0.12335,-0.42134 0.21216,-0.62212 0.0987,-0.21756 0.23628,-0.41244 0.3827,-0.59982 0.1526,-0.19177 0.3243,-0.36661 0.50301,-0.53383 0.1644,-0.15392 0.34791,-0.28452 0.53713,-0.40574 0.0321,-0.0186 0.0632,-0.0392 0.0964,-0.0559 0.0137,-0.007 -0.0521,0.0313 -0.0376,0.0264 0.0342,-0.0115 0.0647,-0.0318 0.0976,-0.0466 0.0948,-0.0429 0.19142,-0.0768 0.29032,-0.10879 0.21366,-0.0674 0.43422,-0.10467 0.65625,-0.13021 0.23922,-0.0293 0.46993,-0.0175 0.70779,0.0143 0.14784,0.0229 0.29211,0.0645 0.42885,0.12527 0.0855,0.038 0.1098,0.054 0.1924,0.10003 0.12923,0.0789 0.25379,0.16679 0.36347,0.27164 0.0758,0.0724 0.0899,0.0936 0.15715,0.17347 0.0967,0.12162 0.17406,0.25649 0.23191,0.40061 0.0379,0.0944 0.0475,0.13308 0.0773,0.23031 0.0742,0.25555 0.0974,0.52057 0.10618,0.78528 -1.7e-4,0.19593 -0.0133,0.39272 -0.0528,0.58499 -0.0296,0.14398 -0.045,0.18138 -0.0887,0.32268 -0.0973,0.28997 -0.24671,0.55821 -0.43362,0.79981 -0.0392,0.0506 -0.0813,0.0988 -0.122,0.14827 -0.1745,0.19826 -0.37857,0.36663 -0.60357,0.50441 -0.0127,0.008 -0.027,0.0123 -0.0406,0.0182 -0.0592,0.0258 -0.11859,0.0512 -0.17788,0.0769 -0.29989,0.10975 -0.6177,0.17017 -0.93762,0.16711 -0.0681,-5.2e-4 -0.13607,-0.006 -0.2041,-0.01 -0.28134,-0.025 -0.55738,-0.0902 -0.81808,-0.19938 -0.17015,-0.0713 -0.20802,-0.0988 -0.36706,-0.18877 -0.0544,-0.0371 -0.1108,-0.0713 -0.16312,-0.1112 -0.20916,-0.15957 -0.39085,-0.36692 -0.50014,-0.60807 -0.0275,-0.0607 -0.0458,-0.12519 -0.0687,-0.18779 -0.0711,-0.27338 -0.0705,-0.54212 0.0117,-0.81324 0.0554,-0.18291 0.0966,-0.24762 0.1816,-0.41842 0.14878,-0.267 0.34602,-0.49973 0.58594,-0.68912 0.15305,-0.12083 0.20173,-0.14181 0.3682,-0.23952 0.0285,-0.009 0.0573,-0.0164 0.0856,-0.0259 0.0688,-0.0232 0.13594,-0.0511 0.20539,-0.0722 0.19705,-0.0597 0.40624,-0.0982 0.61266,-0.0993 0.0689,-2.7e-4 0.13767,0.007 0.20651,0.0111 0.26561,0.0357 0.52575,0.11631 0.74259,0.27882 0.1395,0.10454 0.16265,0.14721 0.27323,0.27881 0.0332,0.0536 0.0703,0.10505 0.0995,0.16094 0.0893,0.17098 0.13355,0.35831 0.1361,0.55097 0.002,0.17675 -0.0162,0.21767 -0.0525,0.38948 -0.0259,0.0639 -0.0469,0.13013 -0.0779,0.19178 -0.0927,0.18434 -0.22865,0.34882 -0.39296,0.47369 -0.14949,0.1136 -0.10696,0.10245 -0.2193,0.10666 -0.0612,0.0133 -0.12142,0.0318 -0.18347,0.04 -0.17284,0.0228 -0.35059,0.004 -0.5089,-0.0716 -0.13182,-0.0632 -0.15497,-0.0998 -0.25896,-0.19758 -0.03,-0.0425 -0.0645,-0.0822 -0.0901,-0.12752 -0.0779,-0.13817 -0.10183,-0.29245 -0.0724,-0.44826 0.0259,-0.13691 0.0571,-0.17236 0.12238,-0.29321 0.11064,-0.13613 0.0883,-0.12719 0.2351,-0.23113 0.008,-0.006 0.0199,-0.007 0.0298,-0.01 0.12744,-0.0421 0.18913,-0.0737 0.32511,-0.0754 0.0555,-7.9e-4 0.11043,0.0118 0.16564,0.0177 0.052,0.0181 0.10631,0.0304 0.15587,0.0543 0.14263,0.0688 0.27075,0.19242 0.32679,0.34303 0.0548,0.14739 0.0367,0.21591 0.0316,0.37137 -0.016,0.0673 -0.0258,0.13644 -0.0481,0.20197 -0.0712,0.20969 -0.2029,0.39001 -0.37778,0.52565 -0.16037,0.12438 -0.12654,0.10925 -0.25998,0.12274 -0.0664,0.0106 -0.13208,0.0296 -0.19933,0.0318 -0.29292,0.01 -0.59775,-0.12863 -0.8196,-0.31234 -0.062,-0.0513 -0.1154,-0.11218 -0.1731,-0.16827 -0.049,-0.0644 -0.10265,-0.12559 -0.14699,-0.19332 -0.16367,-0.25005 -0.27345,-0.56531 -0.24995,-0.86761 0.006,-0.0776 0.028,-0.15304 0.0419,-0.22956 0.0288,-0.0759 0.0517,-0.15425 0.0864,-0.22758 0.14405,-0.30398 0.39331,-0.56349 0.67298,-0.74647 0.0345,-0.0225 0.0735,-0.0372 0.11019,-0.0558 0.0769,-0.0261 0.15195,-0.0585 0.2307,-0.0783 0.29199,-0.0734 0.6181,-0.0588 0.89508,0.0648 0.0701,0.0313 0.13389,0.0752 0.20083,0.11281 0.0624,0.0495 0.12828,0.0949 0.18717,0.14859 0.18488,0.16841 0.33878,0.37502 0.44948,0.59907 0.1039,0.21027 0.11244,0.28 0.17599,0.50478 0.0327,0.21518 0.0592,0.31477 0.0472,0.53376 -0.0105,0.19067 -0.0507,0.37631 -0.11678,0.55535 -0.091,0.24673 -0.13839,0.29449 -0.27937,0.51473 -0.0648,0.0745 -0.12315,0.15499 -0.19427,0.2234 -0.14267,0.13723 -0.33142,0.26581 -0.50928,0.35186 -0.0615,0.0298 -0.12843,0.047 -0.19399,0.0663 -0.32282,0.0949 -0.25351,0.0721 -0.58986,0.10515 -0.0992,-0.005 -0.19893,-0.003 -0.29755,-0.0146 -0.28951,-0.0341 -0.56518,-0.13027 -0.8203,-0.26952 -0.22341,-0.12194 -0.2887,-0.1833 -0.49047,-0.33633 -0.30485,-0.26008 -0.54475,-0.54264 -0.70113,-0.91564 -0.0982,-0.23427 -0.0951,-0.29069 -0.14044,-0.53722 -5.3e-4,-0.0954 -0.009,-0.19103 -0.002,-0.28615 0.0301,-0.39943 0.19421,-0.78446 0.42661,-1.10738 0.064,-0.0889 0.13823,-0.16985 0.20734,-0.25477 0.0807,-0.0801 0.15753,-0.16412 0.24195,-0.24021 0.23098,-0.2082 0.48818,-0.39274 0.77036,-0.52491 0.29414,-0.13777 0.31674,-0.13502 0.62113,-0.2344 0.27958,-0.0798 0.56625,-0.11896 0.85646,-0.12485 0.0847,-0.002 0.1694,0.003 0.25412,0.003 0.33,0.002 0.1501,-0.011 0.43495,0.021 0,0 0.004,-0.003 0.004,-0.003 v 0 c -0.0561,-0.0117 -0.11234,-0.0228 -0.16833,-0.035 -0.0628,-0.0137 -0.12425,-0.035 -0.18806,-0.0428 -0.0813,-0.01 -0.16363,-0.0113 -0.24555,-0.0106 -0.29532,0.002 -0.58622,0.0532 -0.87031,0.13182 -0.26085,0.0856 -0.37808,0.11413 -0.62685,0.23678 -0.13048,0.0643 -0.25838,0.13422 -0.3829,0.20944 -0.29285,0.17691 -0.55384,0.40172 -0.78769,0.65025 -0.0712,0.0863 -0.14786,0.16828 -0.21354,0.2588 -0.23533,0.32431 -0.39875,0.71447 -0.43087,1.11596 -0.008,0.0962 -1.1e-4,0.193 -1.5e-4,0.2895 0.0174,0.0904 0.0281,0.18241 0.0521,0.27132 0.0748,0.27732 0.2119,0.54481 0.38768,0.77157 0.13745,0.17732 0.24527,0.26342 0.40987,0.4146 0.0789,0.0602 0.15525,0.12398 0.23685,0.18051 0.15187,0.10524 0.34548,0.21924 0.51722,0.28932 0.27319,0.11147 0.56502,0.15725 0.85879,0.15722 0.10045,-0.009 0.20198,-0.01 0.30134,-0.0271 0.25545,-0.0445 0.43061,-0.12535 0.66652,-0.24589 0.18518,-0.0946 0.36344,-0.21239 0.51359,-0.35736 0.0713,-0.0688 0.12942,-0.15007 0.19413,-0.2251 0.14175,-0.22277 0.18821,-0.2694 0.28,-0.51855 0.0632,-0.17159 0.11065,-0.3787 0.12165,-0.56178 0.0129,-0.21468 -0.0164,-0.32534 -0.0497,-0.53581 -0.0658,-0.23199 -0.0714,-0.28993 -0.17609,-0.508 -0.1107,-0.23066 -0.25876,-0.43239 -0.44667,-0.60625 -0.0588,-0.0544 -0.12422,-0.101 -0.18633,-0.15151 -0.0667,-0.0388 -0.12979,-0.0845 -0.2,-0.11645 -0.27674,-0.12598 -0.61468,-0.13808 -0.90691,-0.0663 -0.0792,0.0195 -0.15486,0.0512 -0.23229,0.0768 -0.2229,0.12441 -0.33615,0.16937 -0.51876,0.32732 -0.0633,0.0548 -0.12164,0.11529 -0.1776,0.17755 -0.0592,0.0659 -0.11722,0.13329 -0.16737,0.20626 -0.12358,0.1798 -0.13662,0.2494 -0.21323,0.4502 -0.0145,0.0778 -0.0376,0.15452 -0.0436,0.23346 -0.023,0.30086 0.0961,0.6235 0.25835,0.8717 0.0446,0.0682 0.0982,0.13015 0.14724,0.19523 0.0572,0.0572 0.1098,0.11943 0.17156,0.17169 0.21612,0.18284 0.52874,0.33108 0.81699,0.32632 0.068,-10e-4 0.13446,-0.02 0.20169,-0.0299 0.18927,-0.0857 0.32958,-0.13046 0.48707,-0.2558 0.17706,-0.14092 0.30705,-0.32095 0.38025,-0.53514 0.0229,-0.067 0.0339,-0.13758 0.0508,-0.20636 0.007,-0.15314 0.0257,-0.23634 -0.0268,-0.38312 -0.0553,-0.15459 -0.18943,-0.28066 -0.334,-0.35121 -0.0504,-0.0246 -0.10557,-0.0378 -0.15835,-0.0567 -0.0561,-0.007 -0.11171,-0.0205 -0.16817,-0.0203 -0.22404,5.3e-4 -0.4245,0.11002 -0.60737,0.22744 -0.0484,0.0311 -0.0932,0.0683 -0.13374,0.10921 -0.0384,0.0387 -0.0676,0.0856 -0.10138,0.12834 -0.0648,0.12354 -0.096,0.1601 -0.12125,0.29945 -0.0298,0.16454 -0.007,0.31289 0.0765,0.45776 0.0266,0.0459 0.0619,0.0862 0.0928,0.12933 0.10698,0.0999 0.12958,0.13567 0.26406,0.20134 0.16097,0.0786 0.33927,0.0982 0.5159,0.0765 0.0627,-0.008 0.1237,-0.0256 0.18555,-0.0384 0.18916,-0.0891 0.30738,-0.12728 0.46228,-0.24818 0.16305,-0.12726 0.29623,-0.29366 0.38835,-0.47862 0.0313,-0.0629 0.0529,-0.13022 0.0794,-0.19532 0.0352,-0.17318 0.0536,-0.21533 0.0508,-0.39326 -0.002,-0.12497 -0.0227,-0.26712 -0.0624,-0.38605 -0.0489,-0.14647 -0.0956,-0.20386 -0.17685,-0.33387 -0.11368,-0.13293 -0.13654,-0.17411 -0.27803,-0.28079 -0.22055,-0.1663 -0.47841,-0.24522 -0.74884,-0.28313 -0.0688,-0.004 -0.13749,-0.0133 -0.20644,-0.0133 -0.20796,8e-5 -0.42028,0.04 -0.61886,0.0994 -0.0699,0.0209 -0.13994,0.0424 -0.20675,0.0717 -0.10733,0.047 -0.20976,0.10444 -0.31464,0.15666 -0.16487,0.0984 -0.21186,0.11886 -0.36334,0.24018 -0.24473,0.19601 -0.4299,0.41912 -0.58206,0.69297 -0.0342,0.0692 -0.0718,0.13682 -0.1026,0.20761 -0.0575,0.1323 -0.11078,0.28729 -0.13414,0.43044 -0.0332,0.20361 -0.0116,0.40937 0.0391,0.60775 0.0226,0.0636 0.0402,0.12924 0.0679,0.19078 0.10534,0.23361 0.30041,0.45905 0.50256,0.61436 0.0527,0.0405 0.11038,0.074 0.16558,0.11098 0.0598,0.0334 0.1183,0.069 0.1793,0.10005 0.31533,0.16039 0.65713,0.25982 1.00925,0.29344 0.0671,0.004 0.13409,0.0117 0.20132,0.0131 0.32079,0.007 0.63978,-0.0565 0.94116,-0.16306 0.0591,-0.0248 0.12011,-0.0455 0.17725,-0.0745 0.13687,-0.0695 0.31525,-0.1723 0.44662,-0.26727 0.16216,-0.11723 0.30909,-0.25394 0.44263,-0.40271 0.0406,-0.0497 0.0827,-0.0983 0.12185,-0.14913 0.18817,-0.2445 0.34107,-0.51459 0.43925,-0.80768 0.0442,-0.14278 0.0592,-0.18048 0.0908,-0.3258 0.0421,-0.19385 0.0558,-0.39186 0.0555,-0.58991 -7.9e-4,-0.0475 -5.3e-4,-0.095 -0.003,-0.14245 -0.01,-0.21884 -0.044,-0.4375 -0.10186,-0.64868 -0.072,-0.23517 -0.15216,-0.44525 -0.31179,-0.63715 -0.0702,-0.0819 -0.0819,-0.0997 -0.16014,-0.1743 -0.1108,-0.10565 -0.23634,-0.19379 -0.36649,-0.27381 -0.0323,-0.0185 -0.0639,-0.0383 -0.0968,-0.0557 -0.16559,-0.0876 -0.34595,-0.14224 -0.53024,-0.17316 -0.23602,-0.0307 -0.47401,-0.0458 -0.71124,-0.0166 -0.22142,0.0244 -0.44172,0.0582 -0.65488,0.12526 -0.13393,0.0418 -0.26719,0.0887 -0.39154,0.15469 -0.079,0.0419 -0.15666,0.0862 -0.23452,0.1301 -0.0326,0.0184 -0.0647,0.0379 -0.097,0.0569 -0.18789,0.12192 -0.37052,0.2526 -0.53323,0.40729 -0.17783,0.16825 -0.34915,0.34343 -0.50128,0.53567 -0.14763,0.18781 -0.28233,0.38556 -0.38182,0.6037 -0.0886,0.20257 -0.16824,0.40979 -0.2139,0.62681 -0.016,0.0801 -0.0262,0.12333 -0.0361,0.20407 -0.0158,0.12875 -0.0145,0.25894 -0.0125,0.38835 0.006,0.1989 0.0214,0.39806 0.0645,0.59283 0.0491,0.18875 0.11249,0.37344 0.21523,0.54059 0.11054,0.18365 0.23213,0.36109 0.3896,0.50838 0.0265,0.024 0.052,0.0492 0.0795,0.072 0.13957,0.11615 0.30104,0.20437 0.46703,0.27615 0.0921,0.0331 0.11505,0.0435 0.21017,0.0688 0.14643,0.039 0.29711,0.0583 0.44781,0.0715 0.22767,0.0144 0.45601,0.011 0.68303,-0.0133 0.23572,-0.0277 0.4679,-0.0769 0.69506,-0.14618 0.26474,-0.0848 0.52703,-0.17864 0.77653,-0.30228 0.29724,-0.15123 0.58407,-0.32399 0.84611,-0.53099 0.0358,-0.0294 0.0724,-0.058 0.10754,-0.0883 0.15577,-0.13414 0.29718,-0.28525 0.42078,-0.44943 0.11858,-0.1733 0.22497,-0.35472 0.28583,-0.55727 0.0628,-0.20339 0.10913,-0.41091 0.1248,-0.62378 0.003,-0.0356 0.006,-0.0712 0.008,-0.10688 0.007,-0.17707 -0.0104,-0.3546 -0.0349,-0.52969 -0.04,-0.21146 -0.0893,-0.42262 -0.17286,-0.62163 -0.0143,-0.0307 -0.0274,-0.062 -0.0429,-0.0921 -0.0756,-0.14689 -0.17659,-0.28002 -0.28438,-0.40441 -0.1355,-0.14624 -0.28384,-0.27942 -0.43356,-0.41092 -0.14666,-0.1284 -0.29353,-0.25899 -0.46337,-0.3565 -0.15084,-0.0848 -0.30877,-0.15558 -0.4785,-0.19358 -0.17625,-0.0393 -0.35589,-0.0642 -0.53684,-0.0634 -0.17325,0.002 -0.34687,0.01 -0.518,0.0387 -0.16068,0.0274 -0.32049,0.0606 -0.475,0.11357 -0.13996,0.0486 -0.27695,0.10559 -0.40853,0.17389 -0.15363,0.0833 -0.30775,0.16873 -0.44183,0.28186 -0.11983,0.10502 -0.22881,0.22063 -0.31551,0.35513 -0.0699,0.10893 -0.13383,0.22333 -0.16358,0.35054 -0.009,0.064 -0.0103,0.12776 0.003,0.19151 0,0 0.1202,-0.0649 0.1202,-0.0649 z"
         id="path1132-2-4"
         style="fill:#000000;fill-opacity:1;stroke:#000000;stroke-width:0.529167;stroke-linecap:round;stroke-linejoin:round;stroke-miterlimit:4;stroke-dasharray:none;stroke-opacity:1"
         transform="translate(264.92091,-13.966348)"
         inkscape:connector-curvature="0" />
      <path
         sodipodi:nodetypes="cccc"
         id="path1164-0-7"
         d="m -170.63431,172.02252 c -0.0978,1.3313 -0.35346,2.70681 0,4.02596 0.21744,0.76353 0.68179,1.1809 0.68179,1.1809 6.46559,0.62131 13.10911,0.47191 19.83455,-0.0323"
         style="fill:none;stroke:#000000;stroke-width:0.66145802;stroke-linecap:round;stroke-linejoin:round;stroke-miterlimit:4;stroke-dasharray:none;stroke-opacity:1"
         transform="translate(264.92091,-13.966348)"
         inkscape:connector-curvature="0" />
      <path
         sodipodi:nodetypes="ccc"
         id="path1166-4-7"
         d="m -151.27477,177.11005 c 0.90269,-1.73571 1.4026,-3.26589 -0.14528,-5.24636 -6.06333,-0.21808 -12.11117,-0.53918 -18.27329,-0.10022"
         style="fill:none;stroke:#000000;stroke-width:0.66145802;stroke-linecap:round;stroke-linejoin:round;stroke-miterlimit:4;stroke-dasharray:none;stroke-opacity:1"
         transform="translate(264.92091,-13.966348)"
         inkscape:connector-curvature="0" />
      <path
         sodipodi:nodetypes="cc"
         id="path1174-8-5"
         d="m -160.70186,171.5781 c -0.25294,1.66478 -0.52494,3.34464 -0.10057,4.47331"
         style="fill:none;stroke:#000000;stroke-width:0.529167;stroke-linecap:round;stroke-linejoin:miter;stroke-miterlimit:4;stroke-dasharray:none;stroke-opacity:1"
         transform="translate(264.92091,-13.966348)"
         inkscape:connector-curvature="0" />
      <path
         sodipodi:nodetypes="cc"
         id="path1176-7-4"
         d="m -157.54856,171.72389 c -0.19442,1.54597 -0.56762,3.24963 -0.0545,4.1715"
         style="fill:none;stroke:#000000;stroke-width:0.529167;stroke-linecap:round;stroke-linejoin:miter;stroke-miterlimit:4;stroke-dasharray:none;stroke-opacity:1"
         transform="translate(264.92091,-13.966348)"
         inkscape:connector-curvature="0" />
      <path
         sodipodi:nodetypes="cc"
         id="path1178-1-8"
         d="m -154.34481,171.72618 c 0.0258,1.66001 0.1194,3.34525 -0.12919,4.90294"
         style="fill:none;stroke:#000000;stroke-width:0.529167;stroke-linecap:round;stroke-linejoin:miter;stroke-miterlimit:4;stroke-dasharray:none;stroke-opacity:1"
         transform="translate(264.92091,-13.966348)"
         inkscape:connector-curvature="0" />
      <path
         sodipodi:nodetypes="cc"
         id="path1180-7-1"
         d="m -163.87128,171.5952 c -0.12085,1.54625 -0.39902,3.11332 -0.0853,4.60206"
         style="fill:none;stroke:#000000;stroke-width:0.529167;stroke-linecap:round;stroke-linejoin:miter;stroke-miterlimit:4;stroke-dasharray:none;stroke-opacity:1"
         transform="translate(264.92091,-13.966348)"
         inkscape:connector-curvature="0" />
      <path
         sodipodi:nodetypes="cc"
         id="path1182-2-2"
         d="m -167.21109,171.75257 c -0.22953,1.70881 -0.63135,3.53951 0.0544,4.6008"
         style="fill:none;stroke:#000000;stroke-width:0.529167;stroke-linecap:round;stroke-linejoin:miter;stroke-miterlimit:4;stroke-dasharray:none;stroke-opacity:1"
         transform="translate(264.92091,-13.966348)"
         inkscape:connector-curvature="0" />
      <path
         sodipodi:nodetypes="cccssccscc"
         id="path1184-7-8"
         d="m -187.67808,180.3697 c -0.10595,0.86387 -0.0711,1.73182 0,2.60082 0.044,0.40468 0.32826,0.93595 0.93595,0.93595 1.97519,-0.01 4.11034,-0.48243 7.97713,-0.29844 4.58468,0.21816 9.01468,0.58877 13.32756,0.47363 8.56032,-0.22851 16.68714,-1.28124 25.2359,-1.34786 1.5343,-0.15796 1.82088,-4.0235 -0.29772,-4.06543 -5.48016,0.54648 -10.95419,0.56917 -16.4039,0.89412 -10.45842,0.6236 -20.09111,0.16586 -29.65367,0.13115 -0.89322,0 -1.12125,0.67606 -1.12125,0.67606 z"
         style="fill:none;stroke:#000000;stroke-width:0.66145802;stroke-linecap:round;stroke-linejoin:round;stroke-miterlimit:4;stroke-dasharray:none;stroke-opacity:1"
         transform="translate(264.92091,-13.966348)"
         inkscape:connector-curvature="0" />
      <path
         sodipodi:nodetypes="cccc"
         id="path1186-2-9"
         d="m -181.55856,183.70223 c -0.0274,0.95345 -0.54261,2.33662 0.64622,2.48817 1.69357,0.19721 3.71872,-0.27826 5.81771,0.2184 0.80514,0.21574 1.1148,-1.62011 1.43477,-2.52271"
         style="fill:none;stroke:#000000;stroke-width:0.66145802;stroke-linecap:round;stroke-linejoin:round;stroke-miterlimit:4;stroke-dasharray:none;stroke-opacity:1"
         transform="translate(264.92091,-13.966348)"
         inkscape:connector-curvature="0" />
      <path
         sodipodi:nodetypes="cc"
         id="path1188-2-3"
         d="m -178.00784,186.21058 -2.01711,2.48464"
         style="fill:none;stroke:#000000;stroke-width:0.529167;stroke-linecap:round;stroke-linejoin:miter;stroke-miterlimit:4;stroke-dasharray:none;stroke-opacity:1"
         transform="translate(264.92091,-13.966348)"
         inkscape:connector-curvature="0" />
      <path
         sodipodi:nodetypes="cc"
         id="path1190-6-6"
         d="m -175.42164,186.38768 -2.89449,2.63508"
         style="fill:none;stroke:#000000;stroke-width:0.66145802;stroke-linecap:round;stroke-linejoin:round;stroke-miterlimit:4;stroke-dasharray:none;stroke-opacity:1"
         transform="translate(264.92091,-13.966348)"
         inkscape:connector-curvature="0" />
      <ellipse
         transform="matrix(1,0,-0.26487398,0.96428303,264.92091,-13.966348)"
         ry="6.0401125"
         rx="7.9187517"
         cy="201.7585"
         cx="-129.04251"
         id="path1192-1-8"
         style="fill:none;fill-opacity:1;stroke:#000000;stroke-width:0.67359698;stroke-linecap:round;stroke-linejoin:round;stroke-miterlimit:4;stroke-dasharray:none;stroke-opacity:1" />
      <ellipse
         transform="matrix(0.97481488,-0.22301552,0,1,264.92091,-13.966348)"
         ry="1.6599066"
         rx="2.6623375"
         cy="152.71582"
         cx="-187.26874"
         id="path1194-0-0"
         style="fill:none;fill-opacity:1;stroke:#000000;stroke-width:0.66994798;stroke-linecap:round;stroke-linejoin:round;stroke-miterlimit:4;stroke-dasharray:none;stroke-opacity:1" />
      <ellipse
         transform="matrix(0.99233543,-0.12357343,-0.03620719,0.99934429,264.92091,-13.966348)"
         ry="0.17820275"
         rx="0.39983472"
         cy="172.66577"
         cx="-177.68826"
         id="path1194-9-6-2"
         style="fill:none;fill-opacity:1;stroke:#000000;stroke-width:0.66573;stroke-linecap:round;stroke-linejoin:round;stroke-miterlimit:4;stroke-dasharray:none;stroke-opacity:1" />
      <path
         sodipodi:nodetypes="cc"
         id="path1211-1-1"
         d="m -179.51013,200.59349 c -4.61572,-0.59211 -8.45511,1.05987 -12.46906,1.04982"
         style="fill:none;stroke:#000000;stroke-width:0.26458299px;stroke-linecap:round;stroke-linejoin:miter;stroke-opacity:1"
         transform="translate(264.92091,-13.966348)"
         inkscape:connector-curvature="0" />
      <path
         sodipodi:nodetypes="cc"
         id="path1211-2-5-0"
         d="m -186.73313,200.02252 c -5.32103,0.19235 -8.28651,1.05513 -8.28651,1.05513"
         style="fill:none;stroke:#000000;stroke-width:0.3175;stroke-linecap:round;stroke-linejoin:miter;stroke-miterlimit:4;stroke-dasharray:none;stroke-opacity:1"
         transform="translate(264.92091,-13.966348)"
         inkscape:connector-curvature="0" />
      <path
         sodipodi:nodetypes="cc"
         id="path1228-9-5"
         d="m -148.57309,183.05119 c 0.16542,4.94552 7.36263,2.56104 6.82366,-0.31883"
         style="fill:none;stroke:#000000;stroke-width:0.66145802;stroke-linecap:butt;stroke-linejoin:miter;stroke-miterlimit:4;stroke-dasharray:none;stroke-opacity:1"
         transform="translate(264.92091,-13.966348)"
         inkscape:connector-curvature="0" />
      <path
         sodipodi:nodetypes="cc"
         id="path1230-4-1"
         d="m -145.57328,186.1075 c 0.44587,1.31882 0.89219,2.63742 1.65603,3.80426"
         style="fill:none;stroke:#000000;stroke-width:0.595312;stroke-linecap:round;stroke-linejoin:miter;stroke-miterlimit:4;stroke-dasharray:none;stroke-opacity:1"
         transform="translate(264.92091,-13.966348)"
         inkscape:connector-curvature="0" />
      <path
         sodipodi:nodetypes="cc"
         id="path1232-9-1"
         d="m -143.64033,185.50863 c 0.10102,1.35094 0.35253,2.12689 1.20325,3.25298"
         style="fill:none;stroke:#000000;stroke-width:0.529167;stroke-linecap:round;stroke-linejoin:miter;stroke-miterlimit:4;stroke-dasharray:none;stroke-opacity:1"
         transform="translate(264.92091,-13.966348)"
         inkscape:connector-curvature="0" />
      <path
         sodipodi:nodetypes="csssssc"
         d="m -137.49854,192.61749 c 0.4142,0.76777 0.37549,1.79792 0.37549,2.66326 v 0 c 0,2.97596 -2.50322,5.38846 -5.5911,5.38846 -3.08788,0 -5.5911,-2.4125 -5.5911,-5.38846 0,-2.97597 2.50322,-5.38846 5.5911,-5.38846 1.47616,0 2.89242,0.56261 3.93983,1.5651"
         style="fill:none;fill-opacity:1;stroke:#000000;stroke-width:0.66145802;stroke-linecap:round;stroke-linejoin:round;stroke-miterlimit:4;stroke-dasharray:none;stroke-opacity:1"
         id="path1234-0-0"
         transform="translate(264.92091,-13.966348)"
         inkscape:connector-curvature="0" />
      <path
         sodipodi:nodetypes="csssc"
         d="m -142.57815,194.99957 c 0.60057,-0.68556 1.31438,-0.12897 1.54562,0.26998 0.36728,0.63365 -1.24373,1.47653 -1.94149,1.56769 -1.72082,0.22481 -1.90124,-1.69819 -0.5152,-2.81652 0.82545,-0.66602 1.86065,-0.91129 2.65905,-0.29112"
         style="fill:none;fill-rule:evenodd;stroke:#000000;stroke-width:0.529167;stroke-linecap:round;stroke-miterlimit:4;stroke-dasharray:none"
         id="path1242-9-8"
         transform="translate(264.92091,-13.966348)"
         inkscape:connector-curvature="0" />
      <path
         sodipodi:nodetypes="cc"
         id="path1245-1-5"
         d="m -154.36117,199.91964 c 2.48316,-0.72207 6.10651,0.0905 7.83279,-0.42002"
         style="fill:none;stroke:#000000;stroke-width:0.26458299px;stroke-linecap:round;stroke-linejoin:miter;stroke-opacity:1"
         transform="translate(264.92091,-13.966348)"
         inkscape:connector-curvature="0" />
      <path
         sodipodi:nodetypes="csc"
         id="path1247-7-0"
         d="m -150.52547,201.03195 c 2.82784,0.0731 6.06697,-0.16113 9.38687,-0.25579 3.90139,-0.11124 7.70511,-0.13705 7.99403,-0.82908"
         style="fill:none;stroke:#000000;stroke-width:0.34395799;stroke-linecap:round;stroke-linejoin:round;stroke-miterlimit:4;stroke-dasharray:none;stroke-opacity:1"
         transform="translate(264.92091,-13.966348)"
         inkscape:connector-curvature="0" />
      <path
         sodipodi:nodetypes="ccccc"
         transform="matrix(0.26458333,0,0,0.26458333,264.92091,-13.966348)"
         d="m -666.59263,552.92304 c 49.67664,-1.33346 99.35327,-1.24506 149.02991,-4.00139 5.83083,-0.23471 7.70963,3.13958 8.41395,7.47039 2.29905,20.0009 1.91045,40.24473 1.55511,60.48559 0,40.3298 -0.70926,52.59921 -19.21131,60.17743"
         style="fill:none;stroke:#000000;stroke-width:2.5;stroke-linecap:round;stroke-linejoin:round;stroke-miterlimit:4;stroke-dasharray:none;stroke-opacity:1"
         id="path3115"
         inkscape:connector-curvature="0" />
      <ellipse
         transform="matrix(1,0,-0.31919902,0.94768771,264.92091,-13.966348)"
         ry="2.6173"
         rx="2.859926"
         cy="179.88118"
         cx="-82.140869"
         id="path1251-1-6"
         style="fill:none;fill-opacity:1;stroke:#000000;stroke-width:0.543576;stroke-linecap:round;stroke-linejoin:round;stroke-miterlimit:4;stroke-dasharray:none;stroke-opacity:1" />
      <ellipse
         transform="matrix(1,0,-0.32988644,0.94402063,264.92091,-13.966348)"
         ry="0.82710183"
         rx="0.93403494"
         cy="180.51241"
         cx="-79.994179"
         id="path1251-2-1-2"
         style="fill:none;fill-opacity:1;stroke:#000000;stroke-width:0.43570399;stroke-linecap:round;stroke-linejoin:round;stroke-miterlimit:4;stroke-dasharray:none;stroke-opacity:1" />
      <ellipse
         ry="0.50464553"
         rx="0.5228101"
         cy="156.23369"
         cx="-136.58388"
         id="path1268-5-5"
         style="fill:#000000;fill-opacity:1;stroke:none;stroke-width:0.42333299;stroke-linecap:round;stroke-linejoin:round;stroke-miterlimit:4;stroke-dasharray:none;stroke-opacity:1"
         transform="translate(264.92091,-13.966348)" />
      <ellipse
         ry="0.50464553"
         rx="0.5228101"
         cy="159.535"
         cx="-136.79306"
         id="path1268-8-9-8"
         style="fill:#000000;fill-opacity:1;stroke:none;stroke-width:0.42333299;stroke-linecap:round;stroke-linejoin:round;stroke-miterlimit:4;stroke-dasharray:none;stroke-opacity:1"
         transform="translate(264.92091,-13.966348)" />
      <ellipse
         ry="0.50464553"
         rx="0.5228101"
         cy="163.14314"
         cx="-136.99352"
         id="path1268-9-7-6"
         style="fill:#000000;fill-opacity:1;stroke:none;stroke-width:0.42333299;stroke-linecap:round;stroke-linejoin:round;stroke-miterlimit:4;stroke-dasharray:none;stroke-opacity:1"
         transform="translate(264.92091,-13.966348)" />
      <ellipse
         ry="0.43295616"
         rx="0.4485403"
         cy="165.82576"
         cx="-146.43935"
         id="path1268-7-76-2"
         style="fill:#000000;fill-opacity:1;stroke:none;stroke-width:0.42333299;stroke-linecap:round;stroke-linejoin:round;stroke-miterlimit:4;stroke-dasharray:none;stroke-opacity:1"
         transform="translate(264.92091,-13.966348)" />
      <ellipse
         ry="0.43295616"
         rx="0.4485403"
         cy="162.90929"
         cx="-145.71318"
         id="path1268-7-6-7-8"
         style="fill:#000000;fill-opacity:1;stroke:none;stroke-width:0.42333299;stroke-linecap:round;stroke-linejoin:round;stroke-miterlimit:4;stroke-dasharray:none;stroke-opacity:1"
         transform="translate(264.92091,-13.966348)" />
      <ellipse
         ry="0.43295616"
         rx="0.4485403"
         cy="159.76886"
         cx="-145.61296"
         id="path1268-7-1-3-4"
         style="fill:#000000;fill-opacity:1;stroke:none;stroke-width:0.42333299;stroke-linecap:round;stroke-linejoin:round;stroke-miterlimit:4;stroke-dasharray:none;stroke-opacity:1"
         transform="translate(264.92091,-13.966348)" />
      <ellipse
         ry="0.43295616"
         rx="0.4485403"
         cy="156.22754"
         cx="-145.78"
         id="path1268-7-2-6-7"
         style="fill:#000000;fill-opacity:1;stroke:none;stroke-width:0.42333299;stroke-linecap:round;stroke-linejoin:round;stroke-miterlimit:4;stroke-dasharray:none;stroke-opacity:1"
         transform="translate(264.92091,-13.966348)" />
      <ellipse
         ry="0.43295616"
         rx="0.4485403"
         cy="153.10384"
         cx="-146.18091"
         id="path1268-7-9-5-2"
         style="fill:#000000;fill-opacity:1;stroke:none;stroke-width:0.42333299;stroke-linecap:round;stroke-linejoin:round;stroke-miterlimit:4;stroke-dasharray:none;stroke-opacity:1"
         transform="translate(264.92091,-13.966348)" />
      <ellipse
         ry="0.43295616"
         rx="0.4485403"
         cy="150.43504"
         cx="-153.12527"
         id="path1268-7-3-6-4"
         style="fill:#000000;fill-opacity:1;stroke:none;stroke-width:0.42333299;stroke-linecap:round;stroke-linejoin:round;stroke-miterlimit:4;stroke-dasharray:none;stroke-opacity:1"
         transform="translate(264.92091,-13.966348)" />
      <ellipse
         ry="0.43295616"
         rx="0.4485403"
         cy="150.6949"
         cx="-157.55469"
         id="path1268-7-19-3-0"
         style="fill:#000000;fill-opacity:1;stroke:none;stroke-width:0.42333299;stroke-linecap:round;stroke-linejoin:round;stroke-miterlimit:4;stroke-dasharray:none;stroke-opacity:1"
         transform="translate(264.92091,-13.966348)" />
      <ellipse
         ry="0.43295616"
         rx="0.4485403"
         cy="150.60042"
         cx="-165.23232"
         id="path1268-7-4-9-6"
         style="fill:#000000;fill-opacity:1;stroke:none;stroke-width:0.42333299;stroke-linecap:round;stroke-linejoin:round;stroke-miterlimit:4;stroke-dasharray:none;stroke-opacity:1"
         transform="translate(264.92091,-13.966348)" />
      <ellipse
         ry="0.43295616"
         rx="0.4485403"
         cy="153.58879"
         cx="-172.11858"
         id="path1268-7-7-4-2"
         style="fill:#000000;fill-opacity:1;stroke:none;stroke-width:0.42333299;stroke-linecap:round;stroke-linejoin:round;stroke-miterlimit:4;stroke-dasharray:none;stroke-opacity:1"
         transform="translate(264.92091,-13.966348)" />
      <ellipse
         ry="0.43295616"
         rx="0.4485403"
         cy="156.88426"
         cx="-172.47293"
         id="path1268-7-8-8-9"
         style="fill:#000000;fill-opacity:1;stroke:none;stroke-width:0.42333299;stroke-linecap:round;stroke-linejoin:round;stroke-miterlimit:4;stroke-dasharray:none;stroke-opacity:1"
         transform="translate(264.92091,-13.966348)" />
      <ellipse
         ry="0.43295616"
         rx="0.4485403"
         cy="160.80577"
         cx="-172.57924"
         id="path1268-7-45-1-9"
         style="fill:#000000;fill-opacity:1;stroke:none;stroke-width:0.42333299;stroke-linecap:round;stroke-linejoin:round;stroke-miterlimit:4;stroke-dasharray:none;stroke-opacity:1"
         transform="translate(264.92091,-13.966348)" />
      <ellipse
         ry="0.43295616"
         rx="0.4485403"
         cy="163.93588"
         cx="-172.72098"
         id="path1268-7-0-2-0"
         style="fill:#000000;fill-opacity:1;stroke:none;stroke-width:0.42333299;stroke-linecap:round;stroke-linejoin:round;stroke-miterlimit:4;stroke-dasharray:none;stroke-opacity:1"
         transform="translate(264.92091,-13.966348)" />
      <ellipse
         ry="0.43295616"
         rx="0.4485403"
         cy="166.20374"
         cx="-172.08315"
         id="path1268-7-36-9-8"
         style="fill:#000000;fill-opacity:1;stroke:none;stroke-width:0.42333299;stroke-linecap:round;stroke-linejoin:round;stroke-miterlimit:4;stroke-dasharray:none;stroke-opacity:1"
         transform="translate(264.92091,-13.966348)" />
      <ellipse
         ry="0.43295616"
         rx="0.4485403"
         cy="169.07401"
         cx="-165.03152"
         id="path1268-7-10-3-1"
         style="fill:#000000;fill-opacity:1;stroke:none;stroke-width:0.42333299;stroke-linecap:round;stroke-linejoin:round;stroke-miterlimit:4;stroke-dasharray:none;stroke-opacity:1"
         transform="translate(264.92091,-13.966348)" />
      <ellipse
         ry="0.43295616"
         rx="0.4485403"
         cy="169.07401"
         cx="-155.91284"
         id="path1268-7-63-9-3"
         style="fill:#000000;fill-opacity:1;stroke:none;stroke-width:0.42333299;stroke-linecap:round;stroke-linejoin:round;stroke-miterlimit:4;stroke-dasharray:none;stroke-opacity:1"
         transform="translate(264.92091,-13.966348)" />
      <ellipse
         ry="0.43295616"
         rx="0.4485403"
         cy="169.07318"
         cx="-151.37596"
         id="path1268-7-20-0-1"
         style="fill:#000000;fill-opacity:1;stroke:none;stroke-width:0.42333299;stroke-linecap:round;stroke-linejoin:round;stroke-miterlimit:4;stroke-dasharray:none;stroke-opacity:1"
         transform="translate(264.92091,-13.966348)" />
      <ellipse
         transform="rotate(-15.827009,82.222426,-959.92438)"
         ry="0.74585629"
         rx="1.1628134"
         cy="130.52373"
         cx="-183.98705"
         id="path1402-8-1"
         style="fill:none;fill-opacity:1;stroke:#000000;stroke-width:0.529167;stroke-linecap:round;stroke-linejoin:round;stroke-miterlimit:4;stroke-dasharray:none;stroke-opacity:1" />
      <path
         sodipodi:nodetypes="csc"
         id="path1436-9-0"
         d="m -134.54906,149.09187 c 3.92804,-0.0195 3.2899,3.05863 3.09928,5.48929 -0.23952,3.05426 0.42972,5.83952 -2.83259,5.61131"
         style="fill:none;stroke:#000000;stroke-width:0.66145802;stroke-linecap:butt;stroke-linejoin:miter;stroke-miterlimit:4;stroke-dasharray:none;stroke-opacity:1"
         transform="translate(264.92091,-13.966348)"
         inkscape:connector-curvature="0" />
      <path
         d="m -115.98763,146.23615 c 0.0742,-0.0821 0.13631,-0.17413 0.19745,-0.26606 0.0782,-0.13591 0.12468,-0.28632 0.17769,-0.433 0.0743,-0.18716 0.15816,-0.37035 0.22068,-0.56193 0.0569,-0.16847 0.0566,-0.34204 0.0261,-0.515 -0.0375,-0.21236 -0.12976,-0.40593 -0.23567,-0.59155 -0.13168,-0.22239 -0.29059,-0.42706 -0.4506,-0.62949 -0.1858,-0.23762 -0.40242,-0.44669 -0.63734,-0.63483 -0.17051,-0.12842 -0.34602,-0.25327 -0.53604,-0.35173 -0.10955,-0.0568 -0.19198,-0.0881 -0.30585,-0.13531 -0.30195,-0.12097 -0.62203,-0.1809 -0.9429,-0.22439 -0.32103,-0.0396 -0.64508,-0.0248 -0.9661,0.005 -0.25428,0.0298 -0.50867,0.0681 -0.75711,0.13124 -0.16957,0.0431 -0.2381,0.0688 -0.40453,0.12349 -0.36637,0.12634 -0.69849,0.32417 -1.0195,0.53933 -0.10638,0.0713 -0.23663,0.19795 -0.3303,0.28425 -0.24968,0.25298 -0.47643,0.53574 -0.6493,0.84756 -0.0327,0.059 -0.0603,0.1206 -0.0904,0.1809 -0.10321,0.22956 -0.18083,0.47156 -0.22188,0.72024 -0.0229,0.1385 -0.0286,0.24203 -0.0403,0.38202 -0.0222,0.33508 -0.007,0.67302 0.0587,1.00283 0.0126,0.0635 0.0293,0.12617 0.044,0.18925 0.0822,0.30477 0.23106,0.59092 0.43783,0.83036 0.0446,0.0516 0.0942,0.0986 0.14124,0.14795 0.20871,0.19829 0.43439,0.38265 0.68582,0.52476 0.173,0.0978 0.25231,0.12494 0.43599,0.2025 0.32281,0.12192 0.66038,0.20144 1.00555,0.21947 0.2541,0.0133 0.33097,0.001 0.58625,-0.015 0.10159,-0.0131 0.20373,-0.0224 0.30476,-0.0392 0.46121,-0.0768 0.95526,-0.21372 1.39363,-0.37565 0.11873,-0.0439 0.23482,-0.0946 0.35222,-0.14185 0.11035,-0.0517 0.22221,-0.10022 0.33106,-0.15498 0.10146,-0.051 0.20147,-0.10509 0.29959,-0.16229 0.2409,-0.14044 0.51918,-0.29564 0.73892,-0.48177 0.18195,-0.15411 0.20585,-0.20163 0.35086,-0.3835 0.0989,-0.1674 0.14641,-0.22662 0.20703,-0.41131 0.0983,-0.29962 0.0994,-0.61627 0.0932,-0.92746 -0.0219,-0.37688 -0.0924,-0.75573 -0.23857,-1.10546 -0.0264,-0.0633 -0.0583,-0.12415 -0.0874,-0.18622 -0.14258,-0.24304 -0.32231,-0.46724 -0.54406,-0.64314 -0.13969,-0.1108 -0.21193,-0.14459 -0.36587,-0.23291 -0.32343,-0.17016 -0.67964,-0.25645 -1.04493,-0.25886 -0.0731,-5.3e-4 -0.14613,0.006 -0.2192,0.009 -0.36463,0.0332 -0.71762,0.15175 -1.03435,0.33501 -0.15555,0.09 -0.30786,0.18551 -0.46179,0.27826 -0.231,0.16505 -0.45136,0.34892 -0.64009,0.56194 -0.11167,0.12605 -0.15,0.18697 -0.2478,0.32345 -0.18972,0.27712 -0.31545,0.58608 -0.37112,0.9172 -0.0116,0.069 -0.0174,0.13884 -0.0262,0.20825 -0.0239,0.3495 0.0306,0.71108 0.20341,1.02056 0.0342,0.0613 0.0774,0.11717 0.1161,0.17575 0.17148,0.21639 0.37946,0.40856 0.62533,0.53818 0.16345,0.0862 0.22917,0.0977 0.4056,0.15267 0.49939,0.12148 1.00813,0.0389 1.50176,-0.0673 0.23087,-0.0581 0.46157,-0.1313 0.66961,-0.24976 0.2047,-0.11656 0.4106,-0.21063 0.56693,-0.38517 0.0343,-0.0383 0.0604,-0.083 0.0906,-0.12452 0.0185,-0.0464 0.0414,-0.0914 0.0556,-0.1393 0.0583,-0.19729 0.0424,-0.41729 -0.002,-0.61537 -0.0126,-0.0557 -0.0305,-0.10999 -0.0457,-0.16499 -0.0967,-0.31122 -0.26065,-0.59441 -0.46525,-0.84701 -0.0447,-0.0552 -0.0932,-0.10723 -0.13981,-0.16085 -0.27857,-0.28969 -0.61162,-0.52752 -0.96461,-0.71887 -0.0806,-0.0437 -0.16383,-0.0822 -0.24575,-0.12325 -0.34804,-0.16384 -0.71201,-0.29643 -1.08804,-0.37978 -0.22884,-0.0507 -0.36485,-0.0653 -0.59613,-0.0979 -0.40307,-0.0471 -0.81699,-0.0627 -1.21195,0.0472 -0.0551,0.0153 -0.10834,0.0367 -0.16251,0.0551 -0.2307,0.10815 -0.47099,0.22159 -0.64072,0.41646 -0.092,0.10564 -0.15149,0.22297 -0.21016,0.34876 -0.0741,0.18374 -0.13946,0.37379 -0.17031,0.57026 -0.0206,0.1314 -0.0169,0.17193 -0.0196,0.30435 0.006,0.25552 0.085,0.4785 0.25018,0.67497 0.0324,0.0386 0.0696,0.0728 0.10446,0.10924 0.2276,0.20151 0.52123,0.30582 0.81744,0.35796 0.0722,0.0127 0.14529,0.0193 0.21793,0.029 0.29798,0.0252 0.59997,0.0301 0.89747,-0.006 0.19014,-0.0229 0.25774,-0.0428 0.44409,-0.0844 0.56582,-0.1346 1.02026,-0.42277 1.51389,-0.71762 0.39949,-0.26431 0.76615,-0.57377 1.12407,-0.891 0.15069,-0.13955 0.30662,-0.27487 0.44567,-0.42643 -0.0227,0.003 0.031,-0.0227 0.0205,-0.0271 -0.006,-0.003 -0.014,0.001 -0.0205,0.004 -0.0533,0.0206 -0.10552,0.0436 -0.15828,0.0654 0,0 -0.008,0.005 -0.008,0.005 v 0 c -0.0566,0.0258 -0.1547,0.0501 -0.20074,0.10752 -0.11904,0.14077 -0.25319,0.26798 -0.38487,0.39664 -0.35163,0.31947 -0.71879,0.62292 -1.11762,0.88234 0.0263,-0.0123 0.10364,-0.0522 0.079,-0.0368 -0.32029,0.20017 -0.67505,0.34376 -1.03805,0.44417 -0.0731,0.017 -0.14567,0.0365 -0.21929,0.051 -0.36656,0.0726 -0.74391,0.0817 -1.11529,0.0482 -0.0707,-0.01 -0.14173,-0.0172 -0.21195,-0.0298 -0.2892,-0.0521 -0.57275,-0.15178 -0.79522,-0.34922 -0.034,-0.0352 -0.0704,-0.0681 -0.10198,-0.10548 -0.15719,-0.1863 -0.23556,-0.41262 -0.23974,-0.65515 0.002,-0.0499 9e-4,-0.1 0.005,-0.14973 0.0203,-0.24769 0.0991,-0.48761 0.1969,-0.71446 0.0613,-0.1211 0.12223,-0.23692 0.21483,-0.33797 0.0301,-0.0329 0.14118,-0.0887 0.0967,-0.0926 -0.0652,-0.006 -0.11504,0.064 -0.17687,0.0855 -0.0491,0.0171 0.0923,-0.0481 0.13849,-0.0721 0.0556,-0.0209 0.11009,-0.0451 0.1668,-0.0628 0.39779,-0.12413 0.81899,-0.11689 1.229,-0.0742 0.0989,0.0134 0.1982,0.0239 0.29667,0.04 0.47648,0.0782 0.93953,0.22354 1.3739,0.4347 0.0799,0.0417 0.16078,0.0814 0.23958,0.1251 0.34768,0.19271 0.67503,0.42624 0.94707,0.71757 0.0457,0.0532 0.0934,0.10488 0.13715,0.15973 0.20016,0.25081 0.35627,0.53401 0.4484,0.84194 0.0629,0.24748 0.11683,0.51124 0.0341,0.7622 -0.015,0.0456 -0.039,0.0878 -0.0585,0.13164 -0.0292,0.0388 -0.0548,0.0806 -0.0877,0.1163 -0.0369,0.0401 -0.11638,0.0558 -0.12073,0.11007 -0.003,0.0424 0.15272,-0.0743 0.11613,-0.0527 -0.20949,0.1239 -0.44127,0.20386 -0.67583,0.26444 -0.086,0.0191 -0.17147,0.0409 -0.25801,0.0574 -0.40301,0.0771 -0.81822,0.10669 -1.22112,0.0135 -0.0689,-0.0211 -0.13919,-0.038 -0.20669,-0.0632 -0.32368,-0.12079 -0.5983,-0.34062 -0.81177,-0.60922 -0.0377,-0.0573 -0.0795,-0.11217 -0.11311,-0.17201 -0.17169,-0.30578 -0.22597,-0.65748 -0.19656,-1.00351 0.009,-0.0687 0.0156,-0.13782 0.0279,-0.20602 0.0591,-0.32736 0.19274,-0.63316 0.38056,-0.90687 0.0398,-0.0544 0.0777,-0.11028 0.11931,-0.16333 0.21553,-0.27479 0.47899,-0.50874 0.76519,-0.70753 -0.0281,0.0125 -0.11056,0.0536 -0.0843,0.0376 0.31181,-0.18923 0.66515,-0.30762 1.02704,-0.34717 0.0725,-0.004 0.14491,-0.0107 0.21751,-0.011 0.36149,-0.002 0.71325,0.0831 1.03515,0.24727 0.062,0.0352 0.12583,0.0674 0.18602,0.10567 0.29691,0.18872 0.53743,0.45028 0.71029,0.75579 0.0295,0.0608 0.0618,0.12036 0.0885,0.18242 0.14908,0.34542 0.21845,0.71922 0.23799,1.09341 0.001,0.0771 0.005,0.15424 0.004,0.23135 -0.007,0.39264 -0.0828,0.75631 -0.3072,1.08515 -0.14438,0.18038 -0.16089,0.21825 -0.342,0.37156 -0.0709,0.06 -0.15017,0.10964 -0.22268,0.16777 -0.0101,0.008 -0.0132,0.0235 -0.0243,0.0302 -0.24728,0.14928 -0.37405,0.20133 -0.63708,0.32646 -0.11621,0.047 -0.23111,0.0974 -0.34862,0.14102 -0.54017,0.20061 -1.10496,0.34263 -1.67747,0.40824 -0.24947,0.016 -0.33031,0.0287 -0.57854,0.0152 -0.34069,-0.0186 -0.67464,-0.0974 -0.99365,-0.21653 -0.0739,-0.0315 -0.14898,-0.0602 -0.22161,-0.0944 -0.32936,-0.1553 -0.62557,-0.37276 -0.88499,-0.6272 -0.0452,-0.0493 -0.0924,-0.0969 -0.13562,-0.14794 -0.20202,-0.23829 -0.35015,-0.51594 -0.43435,-0.81678 -0.0152,-0.062 -0.0326,-0.12353 -0.0456,-0.18604 -0.0679,-0.32762 -0.0766,-0.6637 -0.0533,-0.9966 0.0352,-0.37565 0.10187,-0.7477 0.26641,-1.09102 0.0308,-0.0597 0.0596,-0.12051 0.0924,-0.17914 0.17265,-0.30857 0.39468,-0.58888 0.64613,-0.83661 0.0533,-0.0483 0.10492,-0.0985 0.15986,-0.14491 0.0554,-0.0468 0.12366,-0.0797 0.17107,-0.13471 0.0189,-0.0219 -0.10488,0.0473 -0.0813,0.0306 0.1719,-0.12181 0.37876,-0.1884 0.571,-0.26833 0.37543,-0.12575 0.75344,-0.21769 1.14878,-0.25406 0.31839,-0.0279 0.63901,-0.0435 0.9576,-0.008 0.3203,0.04 0.63938,0.0966 0.94131,0.21514 0.29792,0.12343 0.57944,0.2798 0.83151,0.48263 0.2309,0.18909 0.44852,0.39251 0.63024,0.63066 0.15953,0.20087 0.31366,0.40641 0.44838,0.62499 0.10405,0.18194 0.1984,0.36952 0.23582,0.57796 0.0238,0.16606 0.0288,0.33155 -0.0182,0.49482 -0.0546,0.18704 -0.12383,0.36833 -0.19639,0.54906 -0.051,0.14266 -0.0942,0.28936 -0.16809,0.42243 -0.0506,0.0906 -0.10492,0.18018 -0.18036,0.25258 0,0 0.22804,-0.0949 0.22804,-0.0949 z"
         id="path1452-6-3"
         style="fill:none;fill-opacity:1;stroke:#000000;stroke-width:0.529167;stroke-linecap:round;stroke-linejoin:round;stroke-miterlimit:4;stroke-dasharray:none;stroke-opacity:1"
         transform="translate(264.92091,-13.966348)"
         inkscape:connector-curvature="0" />
      <path
         sodipodi:nodetypes="cc"
         id="path1454-3-9"
         d="m -122.6109,146.80861 c -3.02421,2.13513 -5.93572,4.50478 -8.7314,7.11548"
         style="fill:none;stroke:#000000;stroke-width:0.66145802;stroke-linecap:round;stroke-linejoin:miter;stroke-miterlimit:4;stroke-dasharray:none;stroke-opacity:1"
         transform="translate(264.92091,-13.966348)"
         inkscape:connector-curvature="0" />
      <path
         sodipodi:nodetypes="cc"
         id="path1456-8-1"
         d="m -131.64728,157.74808 c 3.27675,-3.53271 6.4867,-7.15646 10.46022,-9.73956"
         style="fill:none;stroke:#000000;stroke-width:0.66145802;stroke-linecap:round;stroke-linejoin:miter;stroke-miterlimit:4;stroke-dasharray:none;stroke-opacity:1"
         transform="translate(264.92091,-13.966348)"
         inkscape:connector-curvature="0" />
      <path
         sodipodi:nodetypes="cccc"
         id="path1458-5-9"
         d="m -133.44088,130.92921 c 1.14811,-0.83625 1.83547,-0.78874 1.87114,0.50877 2.24266,-0.58858 3.06489,-0.14591 2.00655,1.66207 1.55655,0.30936 0.88739,1.49677 -0.54918,2.98692"
         style="fill:none;stroke:#000000;stroke-width:0.39687499;stroke-linecap:round;stroke-linejoin:round;stroke-miterlimit:4;stroke-dasharray:none;stroke-opacity:1"
         transform="translate(264.92091,-13.966348)"
         inkscape:connector-curvature="0" />
      <path
         sodipodi:nodetypes="cc"
         id="path1460-6-6"
         d="m -134.19246,130.72599 c -2.52601,-0.0256 -3.29007,0.77593 -1.88908,2.59379"
         style="fill:none;stroke:#000000;stroke-width:0.39687499;stroke-linecap:round;stroke-linejoin:miter;stroke-miterlimit:4;stroke-dasharray:none;stroke-opacity:1"
         transform="translate(264.92091,-13.966348)"
         inkscape:connector-curvature="0" />
      <path
         sodipodi:nodetypes="cc"
         id="path1462-1-9"
         d="m -134.83618,133.06624 c -2.08294,-0.31066 -2.55469,2.54097 -0.24896,2.20707"
         style="fill:none;stroke:#000000;stroke-width:0.39687499;stroke-linecap:round;stroke-linejoin:miter;stroke-miterlimit:4;stroke-dasharray:none;stroke-opacity:1"
         transform="translate(264.92091,-13.966348)"
         inkscape:connector-curvature="0" />
      <path
         sodipodi:nodetypes="ccc"
         id="path1464-1-3"
         d="m -133.6554,134.43101 c 0.97489,1.1767 1.94978,1.17089 2.92467,1.1675 -1.16483,0.23639 -1.42276,0.49627 -0.53458,0.78584"
         style="fill:none;stroke:#000000;stroke-width:0.39687499;stroke-linecap:round;stroke-linejoin:round;stroke-miterlimit:4;stroke-dasharray:none;stroke-opacity:1"
         transform="translate(264.92091,-13.966348)"
         inkscape:connector-curvature="0" />
      <path
         sodipodi:nodetypes="cc"
         id="path1466-5-3"
         d="m -134.32434,136.00187 c -1.52942,1.55675 1.80001,1.79289 2.72418,0.8267"
         style="fill:none;stroke:#000000;stroke-width:0.39687499;stroke-linecap:round;stroke-linejoin:miter;stroke-miterlimit:4;stroke-dasharray:none;stroke-opacity:1"
         transform="translate(264.92091,-13.966348)"
         inkscape:connector-curvature="0" />
      <path
         sodipodi:nodetypes="ccc"
         id="path1468-9-8"
         d="m -137.23221,140.05963 c -4.20701,-0.18489 0.72909,-2.37998 1.53587,-2.16859 0.48811,1.60845 0.60472,2.86707 -1.04233,2.46488"
         style="fill:none;stroke:#000000;stroke-width:0.39687499;stroke-linecap:round;stroke-linejoin:round;stroke-miterlimit:4;stroke-dasharray:none;stroke-opacity:1"
         transform="translate(264.92091,-13.966348)"
         inkscape:connector-curvature="0" />
      <path
         sodipodi:nodetypes="cc"
         id="path1470-8-0"
         d="m -138.67712,140.16175 c 0.17692,1.72231 0.9791,2.17128 2.75475,0.63771"
         style="fill:none;stroke:#000000;stroke-width:0.39687499;stroke-linecap:round;stroke-linejoin:miter;stroke-miterlimit:4;stroke-dasharray:none;stroke-opacity:1"
         transform="translate(264.92091,-13.966348)"
         inkscape:connector-curvature="0" />
      <path
         sodipodi:nodetypes="cc"
         id="path1472-4-5"
         d="m -132.52811,135.39709 c -0.79191,0.8535 0.0937,1.11244 0.775,0.71305"
         style="fill:none;stroke:#000000;stroke-width:0.33072901;stroke-linecap:butt;stroke-linejoin:miter;stroke-miterlimit:4;stroke-dasharray:none;stroke-opacity:1"
         transform="translate(264.92091,-13.966348)"
         inkscape:connector-curvature="0" />
      <path
         sodipodi:nodetypes="cccccc"
         id="path1474-8-6"
         d="m -148.22209,184.59947 c 2.35396,-0.73028 3.04059,-0.47897 3.84456,0.95766 l -1.19575,0.55037 -1.24448,-0.2979 -1.1245,-0.65847 z"
         style="fill:#000000;fill-opacity:1;stroke:#000000;stroke-width:0.26458299px;stroke-linecap:butt;stroke-linejoin:miter;stroke-opacity:1"
         transform="translate(264.92091,-13.966348)"
         inkscape:connector-curvature="0" />
      <path
         sodipodi:nodetypes="cccccccc"
         id="path1476-1-6"
         d="m -168.57517,149.34791 18.08457,-0.26185 c 3.96792,0.50505 6.35741,2.1356 6.2163,5.57059 l -0.0655,12.63635 c -0.10353,1.529 -1.33862,2.60683 -4.38271,2.81213 -8.09193,-0.0355 -16.07459,1.15712 -24.29523,-0.32495 -1.24066,-0.31781 -1.60095,-1.60793 -1.46845,-2.42543 0.53607,-6.3625 -2.92624,-15.2294 4.7288,-17.13294"
         style="fill:none;stroke:#000000;stroke-width:0.529167;stroke-linecap:round;stroke-linejoin:miter;stroke-miterlimit:4;stroke-dasharray:none;stroke-opacity:1"
         transform="translate(264.92091,-13.966348)"
         inkscape:connector-curvature="0" />
      <path
         sodipodi:nodetypes="ccsccccc"
         id="path1478-0-4"
         d="m -170.12249,153.05487 -0.24732,13.10859 c -0.006,0.64614 0.10324,1.55784 0.78153,1.56321 4.81456,0.0381 21.87555,0.71087 21.39753,-0.067 l 0.009,-1.51668 0.82032,-11.10867 c -0.10258,-1.63595 -0.66793,-3.28276 -4.73565,-3.42566 -5.9292,0.10001 -11.95525,-0.2354 -17.6792,0.78734"
         style="fill:none;stroke:#000000;stroke-width:0.529167;stroke-linecap:round;stroke-linejoin:round;stroke-miterlimit:4;stroke-dasharray:none;stroke-opacity:1"
         transform="translate(264.92091,-13.966348)"
         inkscape:connector-curvature="0" />
      <path
         sodipodi:nodetypes="cccccccc"
         id="path2220-0"
         d="m -178.27703,176.94581 c -2.9525,0.21844 -6.09234,0.19279 -9.36576,0.19279 -0.38751,0 -0.86182,-0.0806 -0.8276,-0.94659 0.33665,-4.436 9.9e-4,-9.40822 -0.0727,-14.17149 0,0 0.0854,-0.63711 0.77336,-0.63711 h 6.40013 c 1.99522,0.003 2.73262,1.04652 2.73262,2.73262 0.007,4.27927 0.0444,8.59094 0,12.81612"
         style="fill:none;stroke:#000000;stroke-width:0.66145802;stroke-linecap:round;stroke-linejoin:round;stroke-miterlimit:4;stroke-dasharray:none;stroke-opacity:1"
         transform="translate(264.92091,-13.966348)"
         inkscape:connector-curvature="0" />
      <ellipse
         ry="1.3995259"
         rx="1.1955482"
         cy="164.53685"
         cx="-185.8114"
         id="path2222-4"
         style="fill:none;fill-opacity:1;stroke:#000000;stroke-width:0.66145802;stroke-linecap:round;stroke-linejoin:round;stroke-miterlimit:4;stroke-dasharray:none;stroke-opacity:1"
         transform="translate(264.92091,-13.966348)" />
      <ellipse
         ry="1.3995259"
         rx="1.1955482"
         cy="169.30493"
         cx="-185.20026"
         id="path2222-3-6"
         style="fill:none;fill-opacity:1;stroke:#000000;stroke-width:0.66145802;stroke-linecap:round;stroke-linejoin:round;stroke-miterlimit:4;stroke-dasharray:none;stroke-opacity:1"
         transform="translate(264.92091,-13.966348)" />
      <ellipse
         transform="matrix(0,1,-0.97024825,0.24211223,264.92091,-13.966348)"
         ry="1.6247857"
         rx="1.3498427"
         cy="191.07452"
         cx="127.81317"
         id="path2222-3-4-2"
         style="fill:none;fill-opacity:1;stroke:#000000;stroke-width:0.67152297;stroke-linecap:round;stroke-linejoin:round;stroke-miterlimit:4;stroke-dasharray:none;stroke-opacity:1" />
      <path
         sodipodi:nodetypes="cccccccc"
         id="path2272-6"
         d="m -186.96254,174.61875 c 1.15102,-0.34548 2.14916,-0.79136 2.92663,-1.38216 l 0.0959,1.11528 -0.69171,0.82611 -0.73903,0.38776 -0.75988,0.0222 -0.45426,-0.28234 z"
         style="fill:#000000;fill-opacity:1;stroke:none;stroke-width:0.26458299px;stroke-linecap:butt;stroke-linejoin:miter;stroke-opacity:1"
         transform="translate(264.92091,-13.966348)"
         inkscape:connector-curvature="0" />
      <rect
         ry="0.1"
         rx="0.1"
         y="168.42218"
         x="-181.99631"
         height="2.069263"
         width="0.99519932"
         id="rect2274-7"
         style="fill:#000000;fill-opacity:1;stroke:#000000;stroke-width:0.66145802;stroke-linecap:round;stroke-linejoin:round;stroke-miterlimit:4;stroke-dasharray:none;stroke-opacity:1"
         transform="translate(264.92091,-13.966348)" />
      <path
         id="path2276-6"
         d="m -181.76687,165.34212 h 1.46709"
         style="fill:none;stroke:#000000;stroke-width:0.529167;stroke-linecap:round;stroke-linejoin:miter;stroke-miterlimit:4;stroke-dasharray:none;stroke-opacity:1"
         transform="translate(264.92091,-13.966348)"
         inkscape:connector-curvature="0" />
      <path
         id="path2278-9"
         d="m -182.78879,164.11558 h 2.48901"
         style="fill:none;stroke:#000000;stroke-width:0.529167;stroke-linecap:round;stroke-linejoin:miter;stroke-miterlimit:4;stroke-dasharray:none;stroke-opacity:1"
         transform="translate(264.92091,-13.966348)"
         inkscape:connector-curvature="0" />
      <ellipse
         ry="3.0163014"
         rx="2.7556612"
         cy="150.24512"
         cx="-139.57719"
         id="path2295-3-7"
         style="fill:none;fill-opacity:1;stroke:#000000;stroke-width:0.529167;stroke-linecap:round;stroke-linejoin:round;stroke-miterlimit:4;stroke-dasharray:none;stroke-dashoffset:0;stroke-opacity:1"
         transform="translate(264.92091,-13.966348)" />
      <path
         sodipodi:nodetypes="cc"
         id="path2297-1-2"
         d="m -141.48267,152.48899 c 0.70154,-1.59077 3.13813,-1.41553 3.93844,-0.18581"
         style="fill:none;stroke:#000000;stroke-width:0.529167;stroke-linecap:butt;stroke-linejoin:miter;stroke-miterlimit:4;stroke-dasharray:none;stroke-opacity:1"
         transform="translate(264.92091,-13.966348)"
         inkscape:connector-curvature="0" />
      <path
         id="path2299-7-8"
         d="m -139.74767,151.3555 -0.81612,-2.46716 -0.42124,-0.0726 0.97209,2.56376 z"
         style="fill:#000000;fill-opacity:1;stroke:#000000;stroke-width:0.26499999;stroke-linecap:round;stroke-linejoin:round;stroke-miterlimit:4;stroke-dasharray:none;stroke-opacity:1"
         transform="translate(264.92091,-13.966348)"
         inkscape:connector-curvature="0" />
      <ellipse
         ry="0.20284471"
         rx="0.20251237"
         cy="148.14418"
         cx="-139.85899"
         id="path2301-5-2"
         style="fill:#000000;fill-opacity:1;stroke:none;stroke-width:0.529167;stroke-linecap:round;stroke-linejoin:round;stroke-miterlimit:4;stroke-dasharray:none;stroke-dashoffset:0;stroke-opacity:1"
         transform="translate(264.92091,-13.966348)" />
      <ellipse
         ry="0.20284471"
         rx="0.20251237"
         cy="148.52223"
         cx="-138.82628"
         id="path2301-4-9-9"
         style="fill:#000000;fill-opacity:1;stroke:none;stroke-width:0.529167;stroke-linecap:round;stroke-linejoin:round;stroke-miterlimit:4;stroke-dasharray:none;stroke-dashoffset:0;stroke-opacity:1"
         transform="translate(264.92091,-13.966348)" />
      <ellipse
         ry="0.20284471"
         rx="0.20251237"
         cy="149.32562"
         cx="-138.14433"
         id="path2301-47-6-9"
         style="fill:#000000;fill-opacity:1;stroke:none;stroke-width:0.529167;stroke-linecap:round;stroke-linejoin:round;stroke-miterlimit:4;stroke-dasharray:none;stroke-dashoffset:0;stroke-opacity:1"
         transform="translate(264.92091,-13.966348)" />
      <path
         id="path3139"
         d="m -133.29291,165.3407 -1.0427,2.56136"
         style="fill:none;stroke:#000000;stroke-width:0.52899998;stroke-linecap:round;stroke-linejoin:miter;stroke-miterlimit:4;stroke-dasharray:none;stroke-opacity:1"
         transform="translate(264.92091,-13.966348)"
         inkscape:connector-curvature="0" />
      <path
         style="opacity:0.328;fill:url(#radialGradient23981);fill-opacity:1;stroke:none;stroke-width:0.26458332px;stroke-linecap:butt;stroke-linejoin:miter;stroke-opacity:1"
         d="m 115.25755,137.47434 -10.92645,0.11264 -5.519559,0.33794 -2.252877,0.11264 -1.013796,0.11265 -0.563218,1.46437 -0.112644,9.57473 v 3.6046 0.45058 l 0.675862,0.33793 h 10.250602 l 5.97012,0.33793 4.6184,-0.22528 0.78851,-0.22529 -0.22529,-0.67587 0.45058,-6.64599 0.22528,-3.71725 0.11265,-2.14023 -0.33793,-1.35173 -1.46438,-0.90115 z"
         id="path23678"
         inkscape:connector-curvature="0" />
    </g>
  </g>
</svg>
